<?xml version="1.0" standalone="no"?>
<!DOCTYPE svg PUBLIC "-//W3C//DTD SVG 20010904//EN"
 "http://www.w3.org/TR/2001/REC-SVG-20010904/DTD/svg10.dtd">
<svg version="1.0" xmlns="http://www.w3.org/2000/svg"
 width="518.000000pt" height="520.000000pt" viewBox="0 0 518.000000 520.000000"
 preserveAspectRatio="xMidYMid meet">

<g transform="translate(0.000000,520.000000) scale(0.100000,-0.100000)"
fill="#000000" stroke="none">
<path d="M182 3523 c-70 -181 -119 -380 -148 -588 -21 -159 -21 -478 1 -640
115 -862 642 -1596 1420 -1975 88 -43 205 -95 259 -115 100 -37 390 -115 426
-115 20 0 20 11 20 905 l0 905 -320 0 -320 0 0 360 0 360 319 0 320 0 3 393
c4 417 1 385 54 565 l6 22 -1005 0 -1006 0 -29 -77z"/>
<path d="M3730 3536 l0 -64 -242 -4 -243 -3 -63 -29 c-72 -33 -122 -85 -148
-155 -16 -39 -19 -90 -22 -353 l-3 -308 341 0 340 0 -5 -22 c-3 -13 -28 -165
-55 -338 -28 -173 -53 -325 -55 -337 l-5 -23 -280 0 -280 0 -2 -905 c-2 -498
0 -905 4 -905 4 0 76 18 161 39 199 51 316 94 512 190 778 381 1305 1115 1420
1976 22 162 22 481 1 640 -29 208 -78 407 -148 588 l-29 77 -600 0 -599 0 0
-64z"/>
</g>
</svg>
