<?xml version="1.0" standalone="no"?>
<!DOCTYPE svg PUBLIC "-//W3C//DTD SVG 20010904//EN"
 "http://www.w3.org/TR/2001/REC-SVG-20010904/DTD/svg10.dtd">
<svg version="1.0" xmlns="http://www.w3.org/2000/svg"
 width="600.000000pt" height="900.000000pt" viewBox="0 0 600.000000 900.000000"
 preserveAspectRatio="xMidYMid meet">

<g transform="translate(0.000000,900.000000) scale(0.100000,-0.100000)"
fill="#000000" stroke="none">
<path d="M665 7590 c-3 -5 -1 -10 4 -10 6 0 11 5 11 10 0 6 -2 10 -4 10 -3 0
-8 -4 -11 -10z"/>
<path d="M757 7580 c3 -11 9 -20 14 -20 11 0 11 3 3 24 -9 23 -23 20 -17 -4z"/>
<path d="M840 7580 c0 -5 10 -10 23 -10 18 0 19 2 7 10 -19 13 -30 13 -30 0z"/>
<path d="M670 7535 c-16 -19 0 -19 26 0 16 12 16 14 3 15 -9 0 -22 -7 -29 -15z"/>
<path d="M880 7476 c0 -2 9 -6 20 -9 11 -3 20 -1 20 4 0 5 -9 9 -20 9 -11 0
-20 -2 -20 -4z"/>
<path d="M798 7453 c7 -3 16 -2 19 1 4 3 -2 6 -13 5 -11 0 -14 -3 -6 -6z"/>
<path d="M712 7440 c-19 -4 -38 -12 -44 -18 -13 -13 9 -90 34 -118 16 -18 18
-30 13 -68 -5 -30 -3 -51 4 -60 9 -10 8 -15 -3 -19 -11 -5 -13 -21 -10 -77 4
-50 2 -70 -5 -65 -6 3 -11 1 -11 -6 0 -6 8 -9 19 -6 14 3 18 1 14 -10 -4 -9
-15 -13 -29 -10 -17 3 -21 0 -16 -11 4 -12 1 -14 -14 -8 -14 5 -11 -1 10 -23
17 -17 35 -31 42 -31 7 0 14 -4 16 -10 2 -6 25 -2 56 10 29 11 70 20 92 20 37
0 39 2 46 35 4 21 1 48 -6 65 -26 62 -4 157 58 253 19 29 31 37 56 38 l31 1
-29 8 c-38 12 -59 -3 -92 -63 -37 -69 -42 -50 -6 23 26 51 28 61 14 58 -9 -2
-22 -18 -28 -36 -5 -17 -16 -38 -23 -45 -11 -10 -11 -8 -2 11 10 18 9 25 -2
37 -8 8 -17 11 -21 8 -3 -4 -30 -7 -59 -8 -28 -1 -46 0 -39 2 14 5 17 23 3 23
-15 0 -18 -23 -9 -59 9 -31 10 -32 23 -15 12 15 15 16 16 4 1 -8 1 -19 0 -23
-1 -5 8 -7 20 -5 31 4 37 28 7 29 -20 1 -19 2 6 10 36 10 40 7 32 -24 -7 -29
-61 -44 -71 -20 -2 8 -9 12 -14 9 -5 -4 -27 11 -48 32 -44 43 -72 117 -53 136
8 8 16 5 30 -12 23 -28 73 -27 78 1 3 13 -3 17 -28 17 -18 0 -29 -4 -25 -10 3
-6 -1 -7 -9 -4 -25 9 -19 20 17 32 38 12 8 14 -41 2z m29 -235 c-9 -30 -9 -30
-10 10 -1 25 2 36 9 29 6 -6 6 -21 1 -39z m67 -13 c-27 -5 -22 -22 7 -22 19 0
23 -4 18 -17 -6 -16 -5 -17 12 -3 17 14 18 13 11 -10 -3 -14 -12 -46 -19 -72
-20 -73 -32 -78 -55 -25 -16 35 -19 59 -15 105 5 57 6 59 32 53 18 -3 21 -6 9
-9z m-98 -230 c0 -13 -12 -22 -22 -16 -10 6 -1 24 13 24 5 0 9 -4 9 -8z"/>
<path d="M835 7437 c-10 -8 -15 -19 -11 -26 12 -19 39 -8 41 17 2 25 -4 27
-30 9z"/>
<path d="M1216 7170 c10 -19 24 -38 30 -42 13 -9 28 -56 25 -76 -4 -22 -61
-73 -98 -88 -19 -9 -38 -26 -45 -42 -56 -135 -123 -251 -170 -294 -30 -28 -38
-42 -33 -55 4 -10 12 -53 19 -95 10 -70 13 -76 29 -66 10 5 20 8 22 6 1 -1 15
-61 30 -133 29 -144 70 -287 90 -319 7 -12 19 -47 26 -78 7 -32 16 -58 22 -58
5 0 7 -7 3 -15 -7 -19 3 -47 15 -39 5 3 9 -2 9 -10 0 -25 12 -20 86 34 38 28
72 50 77 50 4 0 5 43 1 95 l-6 96 28 -7 c16 -4 45 -13 66 -20 20 -7 39 -10 42
-7 3 4 -20 15 -52 25 -69 24 -82 34 -82 63 0 17 7 24 31 29 34 7 69 -8 69 -29
0 -17 105 -66 126 -58 29 11 103 -28 149 -79 25 -28 45 -54 45 -58 0 -5 8 -11
18 -14 9 -3 28 -21 40 -40 15 -22 29 -33 38 -29 12 4 14 0 9 -18 -4 -17 2 -33
20 -53 13 -16 22 -32 20 -36 -3 -5 8 -14 25 -22 36 -15 36 -18 9 -52 -12 -15
-19 -30 -15 -33 3 -4 6 -3 6 2 0 4 7 2 15 -5 14 -12 35 -6 35 10 0 5 -7 7 -15
4 -19 -8 -19 0 0 37 18 34 35 31 27 -6 -3 -16 0 -25 8 -25 8 0 10 8 7 21 -4
15 -2 19 8 15 8 -3 18 0 22 7 12 18 12 67 0 67 -5 0 0 9 12 20 l23 19 -24 6
c-14 4 -24 14 -25 26 -2 17 0 18 13 4 9 -8 20 -15 25 -15 14 0 11 20 -5 26 -8
3 -16 18 -19 34 -4 15 -30 54 -59 86 -74 81 -110 131 -133 184 -65 148 -204
390 -273 474 -13 16 -34 50 -47 77 -14 26 -28 50 -32 52 -5 3 -55 -33 -113
-79 -58 -46 -109 -84 -113 -84 -4 0 -17 -9 -29 -19 -27 -26 -109 -45 -156 -37
-61 11 -72 17 -72 34 1 16 2 15 11 0 11 -19 69 -26 69 -8 0 5 -6 7 -14 4 -27
-11 -27 16 1 28 27 12 136 96 181 139 19 20 22 20 22 5 0 -12 5 -16 16 -12 9
3 17 6 20 6 2 0 1 14 -3 31 -5 26 0 36 33 70 21 21 43 39 49 39 5 0 25 -15 44
-32 33 -31 34 -31 28 -8 -4 14 -7 28 -7 31 0 4 -16 14 -35 24 -28 13 -35 21
-30 36 9 26 -11 49 -42 49 -14 0 -23 5 -22 13 2 6 -1 27 -5 45 -6 27 -12 33
-27 29 -16 -4 -19 -1 -14 13 9 27 -14 106 -36 126 -10 9 -19 13 -19 9 0 -4
-10 0 -22 11 l-21 19 19 -35z m-42 -276 c10 -25 -1 -29 -14 -5 -6 12 -7 21 -1
21 5 0 12 -7 15 -16z m83 -105 c7 -17 9 -37 6 -45 -7 -18 -43 -39 -43 -25 0 6
9 15 20 21 19 10 19 13 5 40 -17 33 -18 40 -7 40 4 0 13 -14 19 -31z m-35
-441 c19 -16 31 -48 18 -48 -6 0 -10 9 -10 20 0 28 -17 25 -22 -4 -3 -15 0
-27 8 -30 8 -3 13 -13 13 -23 -1 -17 -2 -17 -6 0 -2 9 -9 17 -14 17 -14 0 0
-88 27 -158 13 -35 21 -68 18 -73 -9 -15 -21 -2 -27 30 -4 16 -17 52 -30 79
-29 60 -43 137 -27 147 6 4 9 14 6 22 -12 31 17 44 46 21z m173 -68 c16 -16
23 -30 17 -30 -7 0 -12 5 -12 10 0 19 -31 10 -40 -12 -7 -19 -9 -16 -9 20 -1
23 3 42 7 42 5 0 21 -13 37 -30z m-282 -20 c3 -11 1 -20 -4 -20 -5 0 -9 9 -9
20 0 11 2 20 4 20 2 0 6 -9 9 -20z m147 -75 c0 -19 -4 -35 -8 -35 -4 0 -6 16
-4 35 2 19 6 35 8 35 2 0 4 -16 4 -35z m-71 -96 c25 -34 26 -39 6 -39 -20 0
-69 104 -60 127 5 14 10 9 20 -21 8 -22 23 -52 34 -67z m208 95 c-3 -3 -12 -4
-19 -1 -8 3 -5 6 6 6 11 1 17 -2 13 -5z m143 -54 c0 -5 -4 -10 -9 -10 -6 0
-13 5 -16 10 -3 6 1 10 9 10 9 0 16 -4 16 -10z m-270 -10 c0 -5 -4 -10 -10
-10 -5 0 -10 5 -10 10 0 6 5 10 10 10 6 0 10 -4 10 -10z m5 -30 c3 -5 1 -10
-4 -10 -6 0 -11 5 -11 10 0 6 2 10 4 10 3 0 8 -4 11 -10z m-65 -70 c0 -5 -4
-10 -10 -10 -5 0 -10 5 -10 10 0 6 5 10 10 10 6 0 10 -4 10 -10z m55 0 c3 -5
-1 -10 -9 -10 -9 0 -16 5 -16 10 0 6 4 10 9 10 6 0 13 -4 16 -10z m-55 -40 c0
-5 -4 -10 -10 -10 -5 0 -10 5 -10 10 0 6 5 10 10 10 6 0 10 -4 10 -10z m65 0
c18 -8 17 -9 -7 -9 -16 -1 -28 4 -28 9 0 12 8 12 35 0z m-68 -57 c-3 -10 -5
-4 -5 12 0 17 2 24 5 18 2 -7 2 -21 0 -30z m54 19 c-7 -2 -18 1 -23 6 -8 8 -4
9 13 5 13 -4 18 -8 10 -11z m743 -138 c9 -3 13 -10 10 -15 -3 -5 -10 -7 -15
-4 -5 4 -9 1 -9 -4 0 -15 -67 -14 -76 1 -5 8 0 9 16 5 13 -3 28 0 37 9 17 16
16 16 37 8z m-36 -66 c-2 -6 -10 -14 -16 -16 -7 -2 -10 2 -6 12 7 18 28 22 22
4z m72 -58 c0 -5 -4 -10 -10 -10 -5 0 -10 5 -10 10 0 6 5 10 10 10 6 0 10 -4
10 -10z"/>
<path d="M860 6913 c-14 -3 -29 -9 -35 -15 -7 -8 -5 -9 7 -5 9 3 19 0 22 -9 7
-18 -5 -18 -29 0 -14 10 -26 11 -53 3 -33 -11 -34 -12 -29 -55 3 -30 0 -53
-11 -71 -19 -33 -11 -57 22 -72 35 -16 100 31 117 86 7 22 15 44 18 50 3 5 6
16 8 25 1 8 5 27 9 43 7 28 5 29 -46 20z m-63 -55 c2 -18 0 -20 -7 -8 -12 18
-13 30 -2 30 4 0 9 -10 9 -22z m8 -118 c10 -11 16 -20 13 -20 -3 0 -13 9 -23
20 -10 11 -16 20 -13 20 3 0 13 -9 23 -20z m-25 -42 c0 -5 -4 -8 -8 -8 -15 0
-32 24 -32 45 0 19 2 18 20 -5 11 -14 20 -28 20 -32z"/>
<path d="M1397 6812 c-3 -4 3 -13 14 -20 10 -7 19 -8 19 -3 0 13 -28 33 -33
23z"/>
<path d="M536 6666 c3 -8 1 -24 -5 -35 -9 -17 -9 -20 3 -15 15 6 28 42 20 56
-9 14 -24 9 -18 -6z"/>
<path d="M510 6650 c0 -5 5 -10 11 -10 5 0 7 5 4 10 -3 6 -8 10 -11 10 -2 0
-4 -4 -4 -10z"/>
<path d="M878 6607 c-14 -18 -62 -61 -107 -94 -45 -34 -77 -64 -72 -68 6 -3
13 1 18 8 4 7 40 38 78 69 75 60 121 105 114 112 -3 3 -16 -10 -31 -27z"/>
<path d="M420 6584 c0 -14 3 -14 15 -4 8 7 15 14 15 16 0 2 -7 4 -15 4 -8 0
-15 -7 -15 -16z"/>
<path d="M492 6569 c-13 -16 -20 -29 -15 -29 5 0 19 14 31 30 29 39 14 38 -16
-1z"/>
<path d="M640 6474 c0 -6 6 -16 13 -24 10 -12 9 -12 -6 -1 -21 17 -27 12 -36
-31 -5 -23 -13 -33 -25 -31 -11 0 -15 -4 -12 -13 3 -7 -2 -18 -12 -23 -9 -5
-14 -13 -10 -16 4 -4 32 18 64 50 42 41 59 53 65 43 5 -7 9 -8 9 -2 0 6 -11
21 -25 34 -14 13 -25 19 -25 14z"/>
<path d="M4010 6410 c-13 -8 -6 -28 41 -117 30 -60 93 -181 139 -271 58 -113
88 -162 98 -160 9 2 15 7 14 11 0 6 -269 535 -276 544 -1 1 -8 -2 -16 -7z"/>
<path d="M661 6379 c-6 -18 -9 -34 -7 -36 2 -2 9 10 15 28 6 18 9 34 7 36 -2
2 -9 -10 -15 -28z"/>
<path d="M636 6289 c-4 -23 -5 -44 -2 -46 2 -2 7 14 11 37 4 23 5 43 2 46 -2
3 -7 -14 -11 -37z"/>
<path d="M2770 6199 c0 -5 5 -7 10 -4 6 3 10 8 10 11 0 2 -4 4 -10 4 -5 0 -10
-5 -10 -11z"/>
<path d="M3299 6206 c-2 -3 -29 -7 -59 -10 -30 -2 -57 -5 -60 -6 -3 0 2 -5 10
-10 8 -5 33 -7 54 -3 32 5 38 3 32 -8 -5 -9 -2 -8 6 2 7 8 22 21 33 27 15 9
16 11 4 12 -9 0 -18 -2 -20 -4z"/>
<path d="M2890 6170 c0 -5 5 -10 10 -10 6 0 10 5 10 10 0 6 -4 10 -10 10 -5 0
-10 -4 -10 -10z"/>
<path d="M3015 6170 c-24 -9 -1 -33 24 -25 32 10 51 -11 51 -58 0 -57 17 -36
28 36 l9 58 -49 -3 c-27 -2 -55 -5 -63 -8z"/>
<path d="M3250 6140 c0 -5 5 -10 10 -10 6 0 10 5 10 10 0 6 -4 10 -10 10 -5 0
-10 -4 -10 -10z"/>
<path d="M610 6130 c0 -5 5 -10 10 -10 6 0 10 5 10 10 0 6 -4 10 -10 10 -5 0
-10 -4 -10 -10z"/>
<path d="M2735 6130 c-3 -5 -2 -10 4 -10 5 0 13 5 16 10 3 6 2 10 -4 10 -5 0
-13 -4 -16 -10z"/>
<path d="M2860 6110 c0 -5 5 -10 11 -10 5 0 7 5 4 10 -3 6 -8 10 -11 10 -2 0
-4 -4 -4 -10z"/>
<path d="M2787 6093 c-4 -3 -7 -11 -7 -17 0 -6 5 -5 12 2 6 6 9 14 7 17 -3 3
-9 2 -12 -2z"/>
<path d="M611 6024 c0 -11 3 -14 6 -6 3 7 2 16 -1 19 -3 4 -6 -2 -5 -13z"/>
<path d="M3045 6025 c21 -17 37 -15 43 3 2 8 -8 12 -30 12 -31 -1 -32 -1 -13
-15z"/>
<path d="M2890 5984 c0 -9 5 -14 12 -12 18 6 21 28 4 28 -9 0 -16 -7 -16 -16z"/>
<path d="M3078 5994 c-5 -4 -8 -16 -8 -28 0 -14 3 -17 11 -9 6 6 9 19 7 28 -1
9 -6 13 -10 9z"/>
<path d="M3007 5973 c-3 -10 -8 -30 -11 -45 -6 -26 -19 -33 -55 -29 -10 2 -11
0 -1 -11 14 -15 63 -21 54 -7 -3 5 -1 9 4 9 5 0 10 -11 10 -24 0 -23 -2 -23
-16 -9 -14 13 -17 13 -32 -7 -19 -25 -60 -25 -68 0 -5 13 -3 13 13 0 17 -14
17 -14 7 6 -6 12 -8 24 -5 28 8 8 -25 8 -54 0 -13 -4 -23 -13 -23 -20 0 -8 -6
-14 -12 -15 -7 0 -3 -4 10 -9 13 -6 22 -15 21 -22 -2 -18 23 -78 33 -78 4 0 8
-4 8 -10 0 -5 -7 -10 -15 -10 -8 0 -15 -4 -15 -10 0 -5 7 -10 15 -10 12 0 14
-4 7 -17 -6 -10 -6 -27 0 -43 5 -15 8 -33 6 -40 -2 -8 14 -20 37 -28 22 -8 69
-26 105 -40 36 -13 106 -40 156 -58 l91 -33 1 47 c2 85 12 118 45 150 30 28
67 38 155 42 6 0 12 6 12 13 0 14 -19 25 -78 47 -18 7 -45 29 -60 49 -32 44
-72 85 -72 73 0 -4 11 -23 25 -42 14 -19 25 -39 25 -46 0 -7 7 -20 16 -29 15
-15 15 -18 -6 -40 l-23 -24 -20 37 c-11 20 -24 40 -29 43 -5 3 -9 10 -8 14 4
11 -60 98 -67 91 -4 -3 3 -24 15 -45 19 -33 20 -40 8 -50 -12 -10 -15 -6 -21
19 -9 40 -21 31 -20 -14 1 -20 -2 -36 -7 -36 -4 0 -8 11 -8 25 0 31 -5 31 -42
0 -47 -40 -60 -11 -19 40 10 11 23 29 31 40 14 19 14 19 -5 4 -20 -16 -55 -15
-55 2 0 5 4 9 9 9 5 0 19 14 32 31 16 23 19 33 10 42 -6 6 -11 22 -12 37 -1
23 -2 22 -11 -7 -11 -33 -38 -46 -38 -18 0 14 -12 20 -34 16 -5 -1 -6 5 -3 14
4 8 2 15 -3 15 -5 0 -11 -8 -13 -17z m-127 -143 c6 -11 8 -20 6 -20 -3 0 -10
9 -16 20 -6 11 -8 20 -6 20 3 0 10 -9 16 -20z m220 -4 c0 -3 -4 -8 -10 -11 -5
-3 -10 -1 -10 4 0 6 5 11 10 11 6 0 10 -2 10 -4z m-180 -60 c0 -3 -4 -8 -10
-11 -5 -3 -10 -1 -10 4 0 6 5 11 10 11 6 0 10 -2 10 -4z m354 -56 c14 -22 22
-40 16 -40 -5 0 -10 4 -10 9 0 6 -12 9 -26 8 -15 -1 -29 4 -32 12 -3 10 2 11
19 7 21 -6 22 -5 8 6 -9 7 -14 19 -12 26 6 17 7 16 37 -28z"/>
<path d="M2800 5970 c0 -5 7 -10 15 -10 8 0 15 5 15 10 0 6 -7 10 -15 10 -8 0
-15 -4 -15 -10z"/>
<path d="M603 5915 c0 -27 2 -38 4 -22 2 15 2 37 0 50 -2 12 -4 0 -4 -28z"/>
<path d="M1640 5950 c0 -5 5 -10 11 -10 5 0 7 5 4 10 -3 6 -8 10 -11 10 -2 0
-4 -4 -4 -10z"/>
<path d="M1497 5943 c-4 -3 -7 -11 -7 -17 0 -6 5 -5 12 2 6 6 9 14 7 17 -3 3
-9 2 -12 -2z"/>
<path d="M3170 5936 c-8 -10 -8 -21 -2 -32 8 -14 10 -11 14 15 5 36 5 36 -12
17z"/>
<path d="M1560 5920 c0 -5 5 -10 10 -10 6 0 10 5 10 10 0 6 -4 10 -10 10 -5 0
-10 -4 -10 -10z"/>
<path d="M3255 5910 c3 -5 8 -10 11 -10 2 0 4 5 4 10 0 6 -5 10 -11 10 -5 0
-7 -4 -4 -10z"/>
<path d="M1690 5845 c0 -8 5 -15 10 -15 6 0 10 7 10 15 0 8 -4 15 -10 15 -5 0
-10 -7 -10 -15z"/>
<path d="M2700 5827 c0 -8 -27 -37 -61 -65 -34 -29 -58 -52 -54 -52 9 0 143
108 151 121 3 5 -4 9 -15 9 -12 0 -21 -6 -21 -13z"/>
<path d="M2774 5825 c26 -19 42 -19 26 0 -7 8 -20 15 -29 15 -13 -1 -13 -3 3
-15z"/>
<path d="M1610 5815 c0 -8 7 -15 15 -15 8 0 15 7 15 15 0 8 -7 15 -15 15 -8 0
-15 -7 -15 -15z"/>
<path d="M4280 5821 c0 -5 5 -13 10 -16 6 -3 10 -2 10 4 0 5 -4 13 -10 16 -5
3 -10 2 -10 -4z"/>
<path d="M4305 5799 c-4 -12 -3 -24 3 -28 5 -3 35 -58 67 -121 64 -130 62
-127 75 -114 7 7 -3 37 -28 90 -21 43 -44 93 -51 111 -7 17 -21 33 -31 36 -13
3 -18 12 -15 26 5 27 -12 27 -20 0z"/>
<path d="M4225 5780 c-3 -5 1 -10 10 -10 9 0 13 5 10 10 -3 6 -8 10 -10 10 -2
0 -7 -4 -10 -10z"/>
<path d="M1760 5770 c-1 -3 -4 -18 -6 -35 -2 -24 -1 -27 7 -12 6 10 8 25 6 35
-3 9 -6 15 -7 12z"/>
<path d="M4182 5750 c-7 -11 -10 -20 -6 -20 7 0 34 27 34 34 0 13 -16 5 -28
-14z"/>
<path d="M2087 5743 c-11 -10 -8 -63 3 -63 6 0 8 11 4 25 -4 15 -2 25 5 25 6
0 11 5 11 10 0 11 -13 13 -23 3z"/>
<path d="M1415 5730 c3 -5 13 -10 21 -10 8 0 12 5 9 10 -3 6 -13 10 -21 10 -8
0 -12 -4 -9 -10z"/>
<path d="M1710 5730 c-8 -5 -12 -12 -9 -15 8 -8 39 5 39 16 0 11 -11 11 -30
-1z"/>
<path d="M1365 5723 c-11 -3 -38 -19 -60 -36 -34 -28 -48 -32 -98 -32 -48 0
-55 -2 -40 -12 9 -7 24 -13 34 -13 10 0 19 -11 23 -25 6 -25 29 -34 41 -15 8
13 58 13 89 -1 19 -9 32 -30 52 -88 14 -42 27 -89 28 -106 1 -27 -2 -30 -31
-33 -25 -3 -32 0 -27 11 6 17 -19 29 -42 20 -13 -5 -13 -7 -2 -15 10 -7 9 -11
-5 -19 -42 -25 -122 -105 -121 -121 0 -11 -7 -18 -18 -18 -11 0 -17 4 -14 9 5
8 -23 26 -29 19 -2 -2 3 -25 10 -52 7 -28 11 -56 8 -63 -3 -9 4 -13 21 -13 14
0 26 -5 26 -11 0 -6 7 -9 15 -5 16 6 42 -31 29 -42 -4 -4 -9 -1 -11 6 -3 6 -9
12 -14 12 -14 0 -10 -43 6 -64 14 -18 17 -17 85 23 59 35 69 45 59 57 -6 8
-18 14 -25 14 -8 0 -14 3 -14 8 0 4 -14 15 -32 25 -24 14 -33 15 -39 5 -4 -7
-11 -9 -16 -5 -4 5 -1 12 6 16 10 7 11 13 1 30 -15 29 4 54 34 46 12 -3 15 -2
9 1 -18 8 -16 24 1 24 19 0 77 -50 71 -60 -3 -4 5 -6 17 -2 20 5 21 3 11 -10
-7 -8 -10 -18 -6 -22 4 -3 -2 -12 -12 -20 -18 -13 -18 -14 2 -35 19 -21 20
-21 44 -3 13 10 32 21 41 25 11 4 15 12 11 23 -5 13 -2 15 15 10 17 -6 55 13
159 75 164 100 195 124 173 139 -11 7 -7 8 15 4 36 -7 97 32 74 47 -7 4 -17 5
-21 3 -4 -3 -8 9 -8 26 0 19 -4 29 -10 25 -6 -4 -9 -9 -6 -13 2 -4 -1 -16 -5
-27 -7 -14 -8 -8 -5 23 2 23 0 42 -5 42 -5 0 -9 -6 -9 -14 0 -8 -4 -18 -10
-21 -5 -3 -8 0 -7 7 2 7 -1 4 -6 -8 -6 -11 -18 -26 -28 -32 -17 -11 -18 -10
-9 14 7 17 7 39 -1 66 -5 22 -8 47 -4 55 4 13 -30 103 -40 103 -2 0 5 -41 19
-107 3 -13 1 -23 -5 -23 -5 0 -9 11 -9 25 0 14 -4 25 -10 25 -5 0 -10 7 -10
15 0 25 -18 17 -35 -15 -9 -16 -21 -30 -27 -30 -6 0 -4 8 5 18 22 24 21 31 -2
25 -10 -3 -22 0 -25 6 -10 16 -26 13 -26 -4 0 -8 5 -15 10 -15 6 0 10 -4 10
-9 0 -18 -58 13 -74 40 -30 51 -13 74 35 48 16 -8 27 -6 50 9 l30 19 -86 -1
c-81 -1 -86 -2 -80 -21 13 -40 17 -75 9 -75 -5 0 -21 16 -37 35 -15 19 -38 40
-50 46 -17 9 -14 3 13 -28 47 -54 76 -95 73 -105 -2 -4 2 -8 8 -8 6 0 9 -7 6
-14 -4 -9 2 -17 13 -21 11 -3 29 -24 41 -45 13 -22 25 -38 27 -35 3 2 -2 15
-10 27 -19 30 -29 68 -17 68 5 0 9 -9 9 -19 0 -10 7 -22 16 -25 22 -9 26 -8
18 5 -3 6 13 -1 36 -16 23 -15 44 -24 48 -21 3 3 3 7 1 9 -2 2 -23 15 -47 30
-23 15 -40 32 -37 37 3 5 -4 15 -16 23 -13 10 -17 17 -9 22 15 9 95 -58 124
-104 22 -34 26 -62 5 -31 -6 9 -12 11 -15 5 -2 -6 -23 -9 -47 -7 -23 3 -39 1
-36 -2 3 -4 28 -8 54 -10 67 -6 80 -30 18 -34 -55 -4 -96 5 -88 18 3 6 -1 7
-10 4 -8 -4 -14 -14 -11 -23 2 -9 7 -36 10 -61 l6 -45 -17 33 c-9 17 -20 32
-24 32 -5 0 -16 16 -25 35 -9 19 -23 35 -31 35 -9 0 -13 6 -9 15 3 8 1 15 -4
15 -5 0 -21 22 -34 48 -40 79 -103 152 -137 159 l-31 6 29 23 c15 13 33 23 40
24 6 0 15 5 18 10 6 10 3 11 -30 3z m405 -219 c0 -8 -4 -12 -10 -9 -5 3 -10
10 -10 16 0 5 5 9 10 9 6 0 10 -7 10 -16z m-230 -155 c0 -10 5 -19 10 -19 6 0
10 -4 10 -10 0 -5 -6 -7 -13 -4 -7 2 -21 -10 -32 -28 -10 -18 -26 -38 -34 -45
-9 -7 -11 -13 -5 -13 7 0 23 15 38 34 16 21 34 34 46 33 26 -2 25 -11 -2 -25
l-23 -11 23 0 23 -1 -25 -23 c-14 -13 -23 -27 -19 -30 3 -4 -1 -7 -11 -7 -13
0 -16 5 -11 21 6 19 5 20 -14 9 -15 -7 -27 -8 -39 -1 -9 6 -12 11 -6 11 22 0
74 94 67 119 -4 17 -3 22 5 17 7 -4 12 -16 12 -27z m-106 -139 c-6 -6 -10 -3
-10 10 0 13 4 16 10 10 7 -7 7 -13 0 -20z m-223 -46 c-12 -15 -21 -22 -21 -16
0 6 5 14 10 17 17 10 11 23 -12 28 -20 4 -19 4 5 6 15 0 28 7 28 14 1 6 3 4 6
-5 2 -10 -5 -30 -16 -44z"/>
<path d="M2100 5710 c0 -5 7 -7 15 -4 8 4 15 8 15 10 0 2 -7 4 -15 4 -8 0 -15
-4 -15 -10z"/>
<path d="M2445 5710 c-6 -10 55 -40 90 -44 28 -4 338 -117 350 -128 7 -6 4
-14 -9 -23 -14 -11 -22 -11 -37 -2 -10 6 -22 8 -26 4 -4 -5 -1 -12 6 -16 7 -5
10 -14 7 -20 -9 -15 7 -14 22 1 22 22 24 -1 4 -44 l-21 -43 28 33 c26 30 29
31 34 13 3 -14 -1 -22 -14 -26 -27 -9 -23 -22 9 -30 15 -3 38 -16 52 -29 14
-12 51 -32 82 -45 l57 -23 63 25 c35 13 81 31 103 39 43 17 54 37 32 60 -8 7
-88 40 -178 72 -90 32 -231 83 -314 113 -82 31 -191 70 -242 89 -52 19 -95 29
-98 24z m655 -260 c0 -5 -2 -10 -4 -10 -3 0 -8 5 -11 10 -3 6 -1 10 4 10 6 0
11 -4 11 -10z"/>
<path d="M1847 5693 c-12 -11 -8 -23 7 -23 8 0 16 7 20 15 5 15 -14 21 -27 8z"/>
<path d="M2133 5678 c-6 -7 -13 -20 -16 -29 -4 -13 -1 -16 13 -12 25 7 44 29
35 43 -8 14 -20 13 -32 -2z m27 -8 c0 -5 -4 -10 -10 -10 -5 0 -10 5 -10 10 0
6 5 10 10 10 6 0 10 -4 10 -10z"/>
<path d="M2053 5634 c-17 -17 -16 -21 3 -28 11 -4 15 -2 11 8 -3 8 -1 16 6 19
6 2 7 6 2 9 -6 3 -16 0 -22 -8z"/>
<path d="M3400 5610 c0 -5 5 -10 10 -10 6 0 10 5 10 10 0 6 -4 10 -10 10 -5 0
-10 -4 -10 -10z"/>
<path d="M3480 5610 c0 -5 5 -10 10 -10 6 0 10 5 10 10 0 6 -4 10 -10 10 -5 0
-10 -4 -10 -10z"/>
<path d="M2005 5600 c-3 -5 -1 -10 4 -10 6 0 11 5 11 10 0 6 -2 10 -4 10 -3 0
-8 -4 -11 -10z"/>
<path d="M2095 5600 c3 -5 8 -10 11 -10 2 0 4 5 4 10 0 6 -5 10 -11 10 -5 0
-7 -4 -4 -10z"/>
<path d="M2165 5580 c4 -6 11 -8 16 -5 14 9 11 15 -7 15 -8 0 -12 -5 -9 -10z"/>
<path d="M2670 5540 c-9 -6 -10 -10 -3 -10 6 0 15 5 18 10 8 12 4 12 -15 0z"/>
<path d="M3346 5511 c-48 -10 -56 -23 -44 -74 5 -22 8 -61 7 -86 -2 -30 4 -56
15 -73 13 -20 15 -37 10 -77 -7 -57 9 -72 21 -18 5 22 9 26 12 15 2 -10 9 -18
15 -18 6 0 19 -7 29 -16 9 -8 23 -17 31 -18 45 -9 64 -25 96 -77 30 -50 29
-87 -4 -99 -50 -19 -114 -10 -114 17 0 8 -4 11 -10 8 -14 -9 -13 -75 1 -75 7
0 17 -7 24 -16 6 -9 24 -16 38 -16 17 0 27 -6 27 -15 0 -10 7 -14 19 -10 10 2
24 1 30 -3 16 -9 4 -37 -20 -43 -10 -3 -17 -2 -14 3 6 9 -35 21 -47 14 -5 -3
-4 -12 3 -20 6 -8 7 -14 2 -14 -16 0 -33 23 -33 46 0 13 -3 25 -7 27 -5 3 -6
-14 -5 -38 l4 -43 -38 -4 c-58 -7 -84 2 -104 35 -17 27 -17 33 -4 69 17 49 18
124 3 204 -13 65 -29 94 -29 52 0 -29 -15 -46 -23 -26 -4 8 -8 4 -12 -9 -4
-13 -14 -23 -23 -23 -12 0 -13 3 -4 12 16 16 15 43 -4 81 -9 18 -18 34 -19 35
-2 2 -13 -6 -25 -18 -20 -20 -23 -20 -45 -6 -20 13 -29 14 -51 4 -21 -10 -28
-10 -31 -1 -3 7 -29 17 -58 24 -30 7 -53 17 -52 22 1 6 -7 13 -18 15 -44 8
-119 50 -172 96 -30 26 -29 8 1 -27 24 -28 25 -47 3 -74 -5 -7 -13 -11 -17 -8
-5 3 -21 -6 -37 -20 l-28 -26 28 17 c30 18 47 13 28 -9 -6 -8 -9 -22 -5 -31 5
-12 1 -16 -14 -14 -12 2 -22 -1 -23 -7 -2 -5 -12 -18 -23 -27 -19 -15 -19 -17
-3 -18 9 0 17 -4 17 -10 0 -5 -7 -7 -15 -4 -8 4 -15 2 -15 -4 0 -5 -10 -12
-22 -16 -18 -5 -20 -8 -9 -15 10 -6 10 -10 1 -16 -7 -4 -15 -3 -19 3 -9 15
-51 3 -51 -13 0 -7 -7 -18 -15 -25 -8 -7 -15 -21 -15 -32 0 -15 -4 -17 -18 -9
-10 6 -37 8 -60 6 -23 -2 -42 0 -42 5 0 6 -5 10 -11 10 -5 0 -7 -5 -3 -12 5
-8 2 -9 -9 -5 -28 11 -19 -11 19 -48 38 -38 54 -43 54 -21 0 8 5 18 10 21 6 4
9 -3 7 -15 -2 -12 -10 -26 -17 -30 -10 -6 -2 -8 22 -7 20 1 34 4 32 6 -2 2 3
13 13 23 9 10 17 26 18 36 3 33 16 60 32 66 13 5 14 4 4 -8 -8 -9 -8 -16 -2
-20 5 -4 14 1 19 10 7 12 9 8 9 -15 0 -17 -4 -31 -9 -31 -4 0 -8 -7 -8 -15 0
-8 -5 -15 -11 -15 -6 0 -8 9 -4 23 4 15 -1 11 -15 -12 -23 -36 -19 -45 20 -55
14 -3 19 -3 13 0 -16 7 -17 24 -3 24 6 0 15 -11 20 -25 11 -28 16 -31 18 -12
8 61 15 77 33 72 21 -7 25 5 7 23 -7 7 -9 12 -5 12 9 0 47 -38 47 -46 0 -3 -7
-4 -15 0 -8 3 -15 1 -15 -5 0 -6 -4 -7 -10 -4 -5 3 -10 2 -10 -4 0 -15 23 -26
28 -13 4 14 32 16 32 3 0 -5 -7 -11 -15 -15 -8 -3 -15 -10 -15 -16 0 -5 7 -10
15 -10 8 0 15 5 15 11 0 5 5 7 11 4 6 -5 4 -12 -8 -21 -17 -12 -16 -13 6 -9
30 6 33 8 35 39 0 16 6 24 13 22 7 -3 15 -1 18 4 10 16 25 12 19 -4 -5 -13 -2
-13 20 -3 l26 12 -31 9 c-22 7 -33 6 -38 -3 -5 -8 -12 -6 -25 8 -17 19 -16 21
25 50 l42 31 25 -33 c22 -29 24 -26 6 18 -5 11 1 15 23 15 16 0 34 -5 40 -11
9 -9 11 -8 10 2 -5 30 -17 39 -38 29 -10 -6 -19 -8 -19 -4 0 9 44 43 56 44 7
0 14 9 17 20 3 11 12 20 21 20 9 0 13 -6 10 -14 -8 -20 14 -30 33 -15 13 11
18 10 30 -6 13 -17 15 -17 10 -2 -4 9 -2 17 4 17 6 0 7 6 3 13 -5 8 -3 8 9 -2
9 -7 14 -17 11 -22 -3 -5 -1 -9 4 -9 6 0 13 7 16 16 9 22 7 31 -3 16 -7 -11
-9 -10 -15 3 -4 13 -1 16 17 13 21 -3 22 -7 19 -68 -4 -70 -27 -166 -43 -176
-5 -3 -7 -10 -4 -15 4 -5 -1 -16 -9 -25 -9 -8 -16 -21 -16 -27 0 -8 4 -7 12 1
7 7 21 12 33 12 11 0 31 7 43 16 12 8 22 10 22 5 0 -20 18 -11 25 12 l8 22 4
-22 c5 -27 11 -28 49 -8 18 9 32 11 39 5 7 -6 15 -7 18 -3 15 14 6 -34 -10
-57 -10 -15 -16 -39 -14 -62 2 -26 -4 -47 -19 -69 -16 -21 -19 -34 -12 -41 7
-7 13 -4 21 10 6 10 7 22 4 26 -3 3 -1 6 5 6 16 0 24 -17 12 -25 -5 -3 -10
-16 -10 -29 0 -32 -9 -38 -34 -21 -27 19 -42 19 -26 0 9 -10 9 -15 1 -15 -6 0
-12 5 -12 10 -1 6 -3 15 -4 20 -1 6 -3 15 -4 21 0 5 -6 7 -11 4 -6 -4 -8 -12
-4 -18 3 -7 -4 0 -16 15 -21 27 -22 27 -51 12 -43 -22 -37 -55 12 -67 32 -7
37 -13 41 -42 2 -19 0 -31 -4 -29 -10 6 -4 -139 6 -154 7 -11 -13 -72 -23 -72
-4 0 -12 5 -19 12 -9 9 -12 9 -12 0 0 -7 5 -12 10 -12 6 0 10 -7 10 -15 0 -8
-7 -15 -15 -15 -8 0 -15 5 -15 10 0 7 -6 7 -20 0 -11 -6 -20 -17 -20 -25 0 -7
-4 -15 -9 -17 -5 -1 -2 -10 7 -18 14 -13 15 -12 9 3 -6 17 10 23 53 19 57 -5
69 -7 65 -10 -2 -3 4 -17 13 -31 28 -39 25 -68 -8 -92 -16 -12 -26 -27 -24
-34 3 -6 1 -30 -5 -54 -8 -37 -7 -43 13 -53 27 -16 86 -16 86 -2 0 7 7 15 16
18 14 6 15 4 4 -10 -12 -13 -11 -17 0 -24 10 -6 18 -4 24 8 4 9 19 33 31 52
13 19 28 51 34 70 15 45 79 133 92 125 5 -4 7 -11 4 -16 -4 -5 -1 -9 4 -9 6 0
11 8 11 19 0 10 6 24 14 31 8 6 12 18 9 26 -3 8 1 14 10 14 13 0 14 -6 7 -31
-5 -17 -14 -37 -21 -45 -6 -8 -8 -14 -4 -14 4 0 2 -6 -4 -14 -9 -11 -9 -15 1
-19 11 -4 11 -7 0 -18 -11 -12 -14 -12 -22 1 -5 8 -10 10 -10 5 0 -6 5 -16 11
-22 9 -9 16 -6 29 10 15 18 20 19 34 8 18 -15 22 -1 5 16 -7 7 -2 9 18 6 27
-5 27 -5 8 11 l-20 16 20 -7 c11 -3 25 -10 31 -15 7 -5 14 -3 17 6 3 8 1 17
-6 20 -7 4 2 3 18 0 17 -4 39 -8 50 -8 11 -1 30 -7 42 -14 12 -6 28 -9 36 -6
9 3 24 1 35 -5 16 -9 23 -1 59 62 34 59 71 173 61 182 -2 1 -16 10 -33 19 -31
17 -26 17 35 -1 9 -3 7 2 -5 12 -11 9 -32 19 -47 22 -16 3 -28 10 -28 16 0 16
-30 46 -43 43 -7 -2 -9 -1 -4 1 13 8 7 22 -13 28 -11 3 -20 13 -20 21 0 8 -4
14 -10 14 -5 0 -10 7 -10 15 0 8 -6 24 -12 36 -11 18 -10 23 15 45 29 25 47
31 47 15 0 -5 11 -8 24 -8 18 0 23 4 19 15 -4 10 -2 13 5 8 24 -15 12 35 -15
60 l-27 25 -16 -32 c-22 -42 -100 -77 -100 -45 0 9 -7 12 -20 9 -30 -8 -31 40
-1 68 19 17 61 43 73 44 4 0 18 14 31 32 l23 32 23 -22 23 -22 -6 30 c-4 17
-15 36 -24 43 -14 10 -18 9 -31 -12 -8 -13 -28 -27 -45 -31 -43 -9 -104 -15
-88 -9 6 3 10 10 6 15 -3 5 2 9 10 9 9 0 16 7 16 16 0 8 4 13 9 9 12 -7 34 32
26 46 -4 5 5 19 19 30 14 11 26 29 26 40 0 24 -8 24 -45 -1 -32 -21 -65 -26
-65 -10 0 6 1 11 2 13 1 1 -4 12 -11 25 -8 16 -9 28 -1 41 7 14 7 22 0 26 -6
4 -9 1 -8 -7 5 -23 -24 -14 -33 10 -6 17 -5 24 6 28 8 4 15 12 15 19 0 7 7 16
16 19 14 5 15 15 10 59 -4 28 -11 56 -16 61 -5 5 -7 0 -3 -13 3 -13 1 -21 -7
-21 -15 0 -6 99 17 180 14 53 14 55 -7 72 -12 10 -35 18 -50 18 -15 0 -54 2
-86 4 -32 3 -76 1 -98 -3z m147 -20 c17 -6 16 -8 -8 -19 -15 -7 -25 -18 -23
-25 6 -17 56 -21 74 -6 12 10 14 4 14 -39 0 -57 -13 -74 -31 -40 -18 34 -31
39 -47 16 -10 -13 -18 -16 -24 -10 -6 6 -17 8 -24 5 -8 -3 -14 0 -14 7 0 10
-3 10 -15 0 -8 -7 -15 -23 -15 -37 0 -23 -1 -23 -17 -7 -12 12 -18 37 -20 83
-2 54 -1 60 7 35 9 -27 13 -30 45 -26 39 5 46 25 15 44 -11 7 -20 16 -20 20 0
10 79 9 103 -1z m-99 -30 c3 -5 -3 -11 -13 -14 -14 -3 -18 -1 -14 9 6 16 19
18 27 5z m90 -123 c-3 -5 -16 -14 -28 -19 -19 -8 -19 -9 -1 -5 11 2 27 7 36
11 14 5 16 1 10 -27 -6 -29 -11 -33 -43 -36 -29 -2 -39 1 -48 18 -7 12 -9 32
-6 44 4 17 13 22 45 22 23 1 38 -3 35 -8z m56 -83 c0 -2 -10 -10 -22 -16 -21
-11 -22 -11 -9 4 13 16 31 23 31 12z m30 -32 c0 -5 -5 -15 -10 -23 -8 -12 -10
-11 -10 8 0 12 5 22 10 22 6 0 10 -3 10 -7z m-710 -38 c19 -23 8 -26 -20 -5
-19 15 -21 20 -9 20 9 0 22 -7 29 -15z m720 -15 c0 -5 -5 -10 -11 -10 -5 0 -7
5 -4 10 3 6 8 10 11 10 2 0 4 -4 4 -10z m-493 -6 c-3 -3 -12 -4 -19 -1 -8 3
-5 6 6 6 11 1 17 -2 13 -5z m98 -14 c3 -5 1 -10 -4 -10 -6 0 -11 5 -11 10 0 6
2 10 4 10 3 0 8 -4 11 -10z m-185 -40 c0 -5 -4 -10 -10 -10 -5 0 -10 5 -10 10
0 6 5 10 10 10 6 0 10 -4 10 -10z m-310 -20 c0 -5 -4 -10 -10 -10 -5 0 -10 5
-10 10 0 6 5 10 10 10 6 0 10 -4 10 -10z m450 -45 c1 -11 6 -29 11 -40 8 -17
9 -16 6 8 -5 32 -3 33 23 7 24 -24 25 -27 3 -33 -14 -4 -12 -5 5 -6 12 0 22
-7 23 -13 0 -10 2 -10 6 0 2 6 9 12 13 12 12 0 -9 -60 -28 -82 -22 -26 -29
-22 -42 20 -6 20 -15 46 -20 57 -17 42 -23 61 -27 95 -4 33 -3 34 11 15 9 -11
16 -29 16 -40z m110 29 c0 -8 -4 -12 -10 -9 -5 3 -10 10 -10 16 0 5 5 9 10 9
6 0 10 -7 10 -16z m-630 -35 c0 -11 -4 -17 -10 -14 -5 3 -10 1 -10 -5 0 -6 -4
-9 -10 -5 -5 3 -2 14 8 25 22 24 22 24 22 -1z m30 11 c0 -5 -5 -10 -11 -10 -5
0 -7 5 -4 10 3 6 8 10 11 10 2 0 4 -4 4 -10z m30 0 c0 -5 -4 -10 -10 -10 -5 0
-10 5 -10 10 0 6 5 10 10 10 6 0 10 -4 10 -10z m40 -10 c0 -5 -7 -10 -16 -10
-8 0 -12 5 -9 10 3 6 10 10 16 10 5 0 9 -4 9 -10z m0 -80 c0 -5 -4 -10 -10
-10 -5 0 -10 -8 -11 -17 0 -15 -2 -15 -8 2 -5 11 -7 23 -4 28 6 11 33 9 33 -3z
m-295 -9 c3 -5 1 -12 -4 -15 -5 -3 -11 1 -15 9 -6 16 9 21 19 6z m55 -32 c0
-11 -4 -18 -10 -14 -5 3 -7 12 -3 20 7 21 13 19 13 -6z m106 -24 c-8 -21 -25
-11 -21 13 2 9 4 19 4 22 1 2 6 -1 12 -7 7 -7 9 -19 5 -28z m664 -10 c-18 -19
-35 -33 -38 -31 -7 7 23 46 36 46 7 0 15 7 19 15 3 9 8 13 11 10 3 -3 -10 -21
-28 -40z m260 25 c0 -5 -2 -10 -4 -10 -3 0 -8 5 -11 10 -3 6 -1 10 4 10 6 0
11 -4 11 -10z m-800 -14 c0 -3 -4 -8 -10 -11 -5 -3 -10 -1 -10 4 0 6 5 11 10
11 6 0 10 -2 10 -4z m707 -155 c32 2 61 8 65 13 3 5 14 2 23 -7 9 -10 25 -17
36 -17 15 0 19 -7 19 -34 0 -19 -3 -42 -6 -51 -6 -14 -8 -14 -31 1 -15 9 -28
12 -32 7 -3 -5 -21 -17 -38 -26 -26 -12 -33 -13 -33 -2 0 7 4 15 8 17 11 4 2
88 -9 88 -5 0 -9 -13 -9 -29 0 -17 -4 -32 -10 -36 -5 -3 -6 -13 -3 -22 5 -12
2 -15 -10 -10 -9 3 -19 2 -22 -3 -3 -5 -18 -4 -35 2 -28 9 -30 13 -30 63 0 43
4 54 18 57 9 3 22 0 29 -5 7 -5 38 -7 70 -6z m343 -61 c0 -5 -5 -10 -11 -10
-5 0 -7 5 -4 10 3 6 8 10 11 10 2 0 4 -4 4 -10z m-90 -80 c0 -5 -4 -10 -10
-10 -5 0 -10 5 -10 10 0 6 5 10 10 10 6 0 10 -4 10 -10z m-510 -170 c0 -5 -4
-10 -10 -10 -5 0 -10 5 -10 10 0 6 5 10 10 10 6 0 10 -4 10 -10z m647 -86 c-3
-3 -12 -4 -19 -1 -8 3 -5 6 6 6 11 1 17 -2 13 -5z m-80 -11 c-13 -3 -15 -8 -8
-17 7 -8 4 -12 -10 -12 -10 0 -19 1 -19 2 0 18 17 34 34 33 17 -1 18 -2 3 -6z
m43 -33 c0 -5 -2 -10 -4 -10 -3 0 -8 5 -11 10 -3 6 -1 10 4 10 6 0 11 -4 11
-10z m-600 -30 c0 -5 -4 -10 -10 -10 -5 0 -10 5 -10 10 0 6 5 10 10 10 6 0 10
-4 10 -10z m205 0 c3 -5 2 -10 -4 -10 -5 0 -13 5 -16 10 -3 6 -2 10 4 10 5 0
13 -4 16 -10z m-98 -22 c-3 -8 -6 -5 -6 6 -1 11 2 17 5 13 3 -3 4 -12 1 -19z
m-137 2 c0 -5 -5 -10 -11 -10 -5 0 -7 5 -4 10 3 6 8 10 11 10 2 0 4 -4 4 -10z
m310 -40 c0 -12 -5 -17 -14 -14 -8 3 -12 13 -9 25 6 23 23 15 23 -11z m85 0
c-3 -5 -11 -10 -16 -10 -6 0 -7 5 -4 10 3 6 11 10 16 10 6 0 7 -4 4 -10z m25
-51 c0 -5 -7 -9 -15 -9 -15 0 -20 12 -9 23 8 8 24 -1 24 -14z"/>
<path d="M3435 5280 c3 -5 12 -10 20 -10 8 0 17 5 20 10 4 6 -5 10 -20 10 -15
0 -24 -4 -20 -10z"/>
<path d="M3489 4716 c13 -16 51 -28 51 -17 0 7 -44 31 -57 31 -3 0 0 -6 6 -14z"/>
<path d="M2050 5456 c-104 -63 -108 -66 -248 -155 -62 -39 -181 -113 -265
-163 -83 -50 -154 -94 -157 -98 -3 -4 -29 -19 -58 -35 -56 -31 -64 -52 -24
-70 12 -5 22 -14 22 -19 0 -5 7 -18 17 -28 9 -10 11 -18 5 -18 -6 0 -14 5 -17
10 -4 6 -10 8 -15 5 -10 -6 35 -55 50 -55 6 0 10 10 10 21 0 18 2 19 15 9 9
-7 13 -15 11 -18 -7 -6 20 -32 33 -32 6 0 11 5 11 10 0 6 -7 10 -15 10 -8 0
-15 4 -15 9 0 14 23 26 27 15 11 -31 45 -74 55 -68 7 5 5 12 -8 22 -18 13 -17
14 13 9 18 -4 35 -2 39 4 3 6 20 7 37 4 30 -6 48 -21 89 -76 10 -12 21 -19 25
-14 5 4 2 10 -4 12 -21 8 -15 17 27 43 22 14 40 30 40 36 0 20 32 25 56 9 26
-17 58 -20 49 -5 -3 6 1 7 9 4 19 -7 21 -24 4 -24 -9 0 -8 -4 2 -10 13 -8 12
-10 -2 -10 -10 0 -18 4 -18 10 0 5 -7 7 -15 4 -8 -4 -15 -2 -15 3 0 6 -11 15
-25 21 -24 11 -36 0 -14 -14 6 -3 8 -17 5 -29 -4 -14 -1 -25 7 -28 9 -4 9 -6
0 -6 -6 -1 -15 4 -18 9 -12 20 -25 10 -22 -18 3 -37 36 -77 78 -96 20 -8 27
-15 16 -15 -14 -1 -11 -8 15 -35 24 -26 36 -32 45 -24 7 6 13 16 13 23 0 7 7
18 15 25 13 11 13 15 3 21 -7 5 -8 9 -3 9 19 0 31 -15 31 -37 0 -26 -6 -29
-24 -11 -9 9 -11 4 -7 -21 5 -42 10 -46 32 -30 22 17 30 59 11 59 -10 0 -10 2
1 9 12 8 12 12 2 25 -8 9 -9 16 -4 16 5 0 15 10 20 23 14 30 -1 57 -30 56 -17
-1 -18 -2 -4 -6 9 -2 15 -9 11 -14 -3 -5 -10 -7 -15 -4 -5 4 -9 -2 -9 -12 0
-10 -9 -24 -20 -31 -16 -10 -20 -10 -20 2 0 8 5 16 11 18 16 5 19 60 4 81 -7
11 -16 14 -19 9 -3 -6 0 -12 6 -15 7 -2 10 -7 7 -11 -3 -3 -13 0 -23 7 -22 16
-11 51 15 44 15 -4 17 -2 9 13 -17 32 -11 34 15 6 16 -17 30 -24 38 -19 9 5 7
9 -6 11 -25 5 -15 27 12 26 17 0 20 4 15 20 -6 21 -6 21 10 -1 18 -24 56 -21
56 4 0 11 7 13 30 8 20 -4 30 -3 30 5 0 7 7 10 15 6 8 -3 15 -2 15 3 0 4 7 8
15 8 8 0 12 -4 9 -9 -3 -4 7 -8 22 -8 23 0 25 2 14 15 -7 9 -10 19 -6 22 4 4
10 3 14 -2 9 -13 32 -17 32 -6 0 5 -6 12 -12 14 -10 4 -10 6 -1 6 7 1 17 -8
23 -19 10 -18 13 -19 25 -6 20 19 19 46 -1 46 -8 0 -13 4 -10 9 7 11 -18 33
-27 24 -4 -3 -7 1 -7 11 0 9 4 15 9 11 6 -3 15 4 21 16 10 18 7 25 -27 58 -30
28 -73 49 -174 88 -74 28 -151 56 -172 63 -41 13 -97 62 -79 68 6 2 28 15 48
28 l37 25 63 -62 c35 -34 62 -65 61 -68 -1 -3 3 -8 8 -10 6 -3 11 2 13 11 3
17 -61 90 -103 118 l-27 18 43 25 c24 14 61 33 82 43 20 10 37 22 37 26 0 5 4
7 9 4 5 -3 12 1 15 10 3 9 12 14 20 11 8 -3 20 0 28 6 7 7 11 11 9 10 -2 -2
-9 1 -15 6 -7 6 -42 -9 -96 -43z m-230 -191 c14 -16 10 -18 -14 -9 -9 3 -16
10 -16 15 0 14 16 11 30 -6z m182 -107 c-7 -7 -12 -8 -12 -2 0 14 12 26 19 19
2 -3 -1 -11 -7 -17z m88 -33 c11 -3 20 -11 20 -16 0 -13 -40 -1 -62 19 -10 8
-18 22 -18 30 0 12 5 11 20 -5 10 -12 28 -24 40 -28z m-520 -5 c0 -9 -70 -50
-85 -50 -15 0 9 22 43 40 44 23 42 22 42 10z m610 -40 c0 -5 -11 -10 -24 -10
-14 0 -28 5 -31 10 -4 6 7 10 24 10 17 0 31 -4 31 -10z m20 -30 c0 -5 -4 -10
-10 -10 -5 0 -10 5 -10 10 0 6 5 10 10 10 6 0 10 -4 10 -10z m-754 -25 c-18
-15 -24 -25 -17 -29 6 -4 9 -12 5 -17 -3 -5 -1 -15 4 -22 5 -7 13 -23 16 -37
7 -24 6 -24 -9 3 -20 35 -28 34 -23 -3 3 -16 1 -30 -3 -30 -4 0 -12 14 -18 30
-5 17 -15 30 -20 30 -6 0 -11 5 -11 10 0 6 11 8 26 4 25 -7 26 -6 19 39 l-7
46 33 -1 32 -1 -27 -22z m724 16 c0 -5 -7 -14 -15 -21 -10 -9 -15 -9 -15 -1 0
6 5 11 11 11 5 0 7 5 4 10 -3 6 -1 10 4 10 6 0 11 -4 11 -9z m-607 -91 c8 0 8
-3 -1 -12 -18 -18 -28 3 -22 47 2 14 4 12 7 -7 2 -16 9 -28 16 -28z m-219 4
c4 -10 1 -14 -6 -12 -15 5 -23 28 -10 28 5 0 13 -7 16 -16z m156 -5 c0 -5 -9
-9 -20 -9 -19 0 -26 11 -14 23 8 8 34 -3 34 -14z m390 1 c0 -5 -4 -10 -10 -10
-5 0 -10 5 -10 10 0 6 5 10 10 10 6 0 10 -4 10 -10z m-66 -15 c3 -8 1 -15 -4
-15 -6 0 -10 5 -10 11 0 6 -7 9 -15 5 -8 -3 -15 -1 -15 4 0 16 37 11 44 -5z
m-224 -5 c0 -5 -4 -10 -10 -10 -5 0 -10 5 -10 10 0 6 5 10 10 10 6 0 10 -4 10
-10z m260 0 c0 -5 -4 -10 -10 -10 -5 0 -10 5 -10 10 0 6 5 10 10 10 6 0 10 -4
10 -10z m290 0 c0 -5 -4 -10 -10 -10 -5 0 -10 5 -10 10 0 6 5 10 10 10 6 0 10
-4 10 -10z m-145 -10 c-3 -5 -12 -10 -18 -10 -7 0 -6 4 3 10 19 12 23 12 15 0z
m-471 -16 c9 -22 -3 -32 -14 -14 -12 19 -12 30 -1 30 5 0 12 -7 15 -16z m156
-3 c0 -5 -9 -11 -20 -14 -22 -6 -28 8 -7 16 19 8 27 8 27 -2z m350 5 c0 -3 -4
-8 -10 -11 -5 -3 -10 -1 -10 4 0 6 5 11 10 11 6 0 10 -2 10 -4z m-170 -28 c0
-16 -3 -19 -11 -11 -6 6 -8 16 -5 22 11 17 16 13 16 -11z m50 12 c0 -5 -4 -10
-9 -10 -6 0 -13 5 -16 10 -3 6 1 10 9 10 9 0 16 -4 16 -10z m-446 -22 c-8 -28
-12 -33 -20 -25 -9 8 6 47 17 47 6 0 7 -10 3 -22z m126 12 c0 -5 -2 -10 -4
-10 -3 0 -8 5 -11 10 -3 6 -1 10 4 10 6 0 11 -4 11 -10z m226 -25 c10 -8 14
-15 8 -15 -5 0 -19 7 -30 15 -10 8 -14 15 -8 15 5 0 19 -7 30 -15z m74 -5 c0
-5 -5 -10 -11 -10 -5 0 -7 5 -4 10 3 6 8 10 11 10 2 0 4 -4 4 -10z m-65 -89
c-3 -12 -11 -18 -17 -15 -6 4 -5 10 3 15 8 5 10 9 6 9 -5 0 -5 5 -2 11 11 16
18 3 10 -20z m45 -11 c0 -11 -4 -20 -9 -20 -11 0 -22 26 -14 34 12 12 23 5 23
-14z m-62 -63 c5 -24 -15 -21 -21 4 -3 13 -1 19 6 16 7 -2 13 -11 15 -20z m52
-1 c0 -14 -29 -30 -38 -21 -3 3 0 5 6 5 7 0 12 7 12 15 0 8 5 15 10 15 6 0 10
-6 10 -14z m36 -47 c7 -2 4 -11 -7 -23 -19 -19 -19 -19 -19 15 0 19 4 29 8 23
4 -6 12 -13 18 -15z"/>
<path d="M2640 5487 c0 -10 -4 -16 -9 -12 -5 3 -12 1 -16 -5 -3 -6 4 -10 18
-10 28 0 96 32 80 37 -7 3 -22 -1 -34 -7 -17 -10 -23 -9 -30 1 -7 11 -9 10 -9
-4z"/>
<path d="M3965 5450 c-27 -10 -51 -24 -53 -31 -4 -11 -2 -11 9 -2 7 8 17 9 23
4 7 -6 24 1 46 20 19 15 33 28 30 27 -3 0 -27 -9 -55 -18z"/>
<path d="M2713 5395 c0 -8 7 -17 15 -20 23 -8 24 0 4 18 -15 14 -19 15 -19 2z"/>
<path d="M3871 5380 c-26 -23 -40 -27 -66 -23 -30 5 -94 -13 -96 -27 -4 -43
-2 -170 4 -170 4 0 7 15 7 33 1 42 15 59 75 90 64 34 108 74 99 89 -5 7 -2 9
7 6 8 -3 20 1 27 8 7 8 11 14 10 15 -25 6 -39 2 -67 -21z m14 -20 c-3 -5 -16
-15 -28 -21 l-22 -12 20 21 c21 22 41 30 30 12z"/>
<path d="M3600 5380 c0 -6 7 -10 15 -10 8 0 15 2 15 4 0 2 -7 6 -15 10 -8 3
-15 1 -15 -4z"/>
<path d="M3825 5380 c-3 -5 1 -10 9 -10 9 0 16 5 16 10 0 6 -4 10 -9 10 -6 0
-13 -4 -16 -10z"/>
<path d="M3580 5301 c0 -5 5 -13 10 -16 6 -3 10 -2 10 4 0 5 -4 13 -10 16 -5
3 -10 2 -10 -4z"/>
<path d="M3580 5110 c0 -5 5 -10 11 -10 5 0 7 5 4 10 -3 6 -8 10 -11 10 -2 0
-4 -4 -4 -10z"/>
<path d="M2940 5040 c0 -5 5 -10 11 -10 5 0 7 5 4 10 -3 6 -8 10 -11 10 -2 0
-4 -4 -4 -10z"/>
<path d="M2890 5036 c0 -2 7 -7 16 -10 8 -3 12 -2 9 4 -6 10 -25 14 -25 6z"/>
<path d="M710 5010 c6 -11 13 -20 16 -20 2 0 0 9 -6 20 -6 11 -13 20 -16 20
-2 0 0 -9 6 -20z"/>
<path d="M2395 5020 c-4 -6 1 -7 11 -3 11 4 15 3 10 -5 -3 -6 -2 -13 3 -16 10
-7 23 19 14 28 -10 9 -31 7 -38 -4z"/>
<path d="M3485 4990 c3 -5 8 -10 11 -10 2 0 4 5 4 10 0 6 -5 10 -11 10 -5 0
-7 -4 -4 -10z"/>
<path d="M2286 4975 c4 -8 10 -12 15 -9 11 6 2 24 -11 24 -5 0 -7 -7 -4 -15z"/>
<path d="M2741 4942 c0 -10 3 -12 6 -5 3 8 14 11 29 7 13 -3 24 -2 24 2 0 5
-14 10 -30 11 -23 2 -30 -2 -29 -15z"/>
<path d="M760 4901 c0 -5 5 -13 10 -16 6 -3 10 -2 10 4 0 5 -4 13 -10 16 -5 3
-10 2 -10 -4z"/>
<path d="M1130 4895 c-7 -8 -16 -15 -21 -15 -13 0 -90 -52 -86 -57 7 -6 127
68 127 78 0 13 -6 11 -20 -6z"/>
<path d="M2740 4864 c0 -8 5 -12 10 -9 6 4 8 11 5 16 -9 14 -15 11 -15 -7z"/>
<path d="M3397 4830 c-3 -11 -2 -22 3 -25 4 -3 10 4 13 15 3 11 2 22 -3 25 -4
3 -10 -4 -13 -15z"/>
<path d="M3217 4809 c-3 -12 -4 -26 -1 -31 9 -14 26 3 20 19 -5 11 -2 13 10 9
10 -4 14 -1 12 6 -8 23 -35 20 -41 -3z"/>
<path d="M1566 4791 c-5 -7 -17 -10 -28 -8 -14 4 -18 1 -14 -8 2 -7 -2 -16
-10 -19 -9 -3 -14 -12 -11 -19 5 -17 32 -15 32 2 0 8 8 19 18 25 15 9 21 7 36
-13 16 -21 19 -21 24 -6 10 25 9 28 -8 21 -10 -4 -19 2 -24 16 -5 15 -10 18
-15 9z"/>
<path d="M1600 4790 c0 -5 7 -10 16 -10 8 0 12 5 9 10 -3 6 -10 10 -16 10 -5
0 -9 -4 -9 -10z"/>
<path d="M1950 4780 c0 -6 7 -10 15 -10 8 0 15 2 15 4 0 2 -7 6 -15 10 -8 3
-15 1 -15 -4z"/>
<path d="M1690 4761 c0 -6 5 -13 10 -16 6 -3 10 1 10 9 0 9 -4 16 -10 16 -5 0
-10 -4 -10 -9z"/>
<path d="M4059 4733 c-2 -68 3 -121 17 -161 10 -30 11 -49 4 -62 -14 -25 -13
-36 5 -54 8 -8 16 -25 18 -37 2 -13 9 -25 15 -27 13 -4 16 -28 5 -35 -5 -2 -3
-2 4 -1 6 2 14 -3 17 -11 3 -10 0 -12 -12 -8 -15 6 -15 5 -3 -10 17 -21 34
-11 29 17 -3 12 1 28 9 34 11 10 13 8 13 -13 0 -14 -5 -34 -11 -44 -9 -14 -9
-26 0 -51 9 -26 9 -35 -1 -42 -11 -6 -10 -8 0 -8 13 0 36 -49 28 -58 -3 -3
-12 1 -20 7 -12 10 -15 8 -18 -14 l-3 -27 -42 31 -43 31 -6 -25 c-4 -15 -1
-32 6 -40 11 -13 10 -14 -4 -9 -19 7 -19 4 -6 -32 10 -24 9 -26 -6 -13 -13 10
-15 24 -11 61 5 38 3 50 -11 57 -12 7 -13 10 -3 11 10 0 11 3 2 13 -7 9 -7 17
0 24 13 13 8 85 -7 90 -17 6 -46 -68 -49 -123 -2 -29 -12 -72 -23 -97 l-20
-45 22 -21 c27 -26 36 -26 36 -3 0 9 6 25 13 34 11 14 13 12 13 -18 0 -30 -4
-36 -33 -46 -18 -7 -33 -14 -33 -18 0 -10 52 -29 66 -23 9 3 14 0 12 -7 -2 -6
62 -51 142 -99 282 -170 320 -191 320 -176 0 17 -38 40 -60 37 -13 -3 -13 -2
0 7 16 11 15 12 -20 28 -22 10 -23 12 -4 12 11 1 25 6 31 12 5 5 24 11 42 11
17 1 36 7 43 15 10 12 6 14 -28 9 l-39 -6 35 14 c38 14 50 12 50 -9 0 -16 30
-29 31 -12 1 7 3 25 5 42 2 16 -1 32 -6 35 -6 4 1 21 15 40 33 45 32 50 -5 11
-37 -38 -49 -39 -42 -5 3 19 7 22 13 12 6 -9 9 -7 9 10 0 12 5 22 11 22 8 0
10 12 6 35 -6 36 1 43 21 23 6 -6 14 -9 17 -6 3 3 -1 12 -9 20 -8 8 -18 32
-21 52 -4 20 -11 36 -15 36 -23 0 -57 48 -59 85 -3 68 -16 63 -31 -13 -6 -32
-6 -61 0 -76 5 -14 7 -36 4 -49 -2 -14 2 -30 11 -37 21 -17 19 -37 -4 -50 -33
-17 -49 -12 -44 13 6 29 -14 107 -27 107 -5 0 -20 -4 -34 -9 -17 -7 -26 -7
-29 2 -3 9 -8 8 -21 -2 -15 -12 -16 -12 -10 5 5 18 5 18 -9 2 -19 -24 -37 -23
-37 2 0 22 -16 27 -23 8 -2 -7 -8 0 -12 16 -6 21 -4 32 8 40 11 9 13 16 5 30
-6 11 -7 16 -1 13 13 -8 57 38 49 51 -3 5 7 20 22 33 l27 24 -25 -29 c-15 -18
-19 -27 -10 -24 36 11 137 187 113 195 -31 11 -46 30 -36 48 10 18 11 17 24
-3 10 -16 16 -18 26 -10 11 9 11 14 1 26 -11 13 -10 15 5 9 10 -4 16 -3 12 2
-8 13 -73 34 -84 27 -6 -4 -6 8 0 30 17 60 9 67 -68 58 -36 -3 -80 -6 -97 -6
-84 1 -86 1 -86 25 0 29 -15 51 -29 43 -6 -4 -11 -2 -11 4 0 6 -7 18 -15 26
-13 14 -15 12 -16 -13z m272 -130 c19 -52 11 -112 -23 -159 -17 -25 -42 -47
-54 -50 -30 -8 -64 12 -64 37 0 11 -7 22 -15 25 -8 4 -15 11 -15 16 0 6 11 3
25 -6 20 -13 23 -13 19 -2 -4 10 1 15 13 14 10 0 27 3 37 7 17 7 18 5 13 -15
l-6 -23 20 20 c12 11 19 28 17 37 -3 14 -6 15 -33 0 -35 -18 -75 -11 -75 14
-1 14 -3 14 -19 -5 -16 -19 -21 -20 -31 -8 -6 7 -10 26 -8 40 l3 26 58 -29 59
-30 -26 27 c-15 15 -23 30 -20 34 4 4 2 13 -5 20 -15 19 11 41 39 34 11 -3 22
-2 25 3 10 16 57 -3 66 -27z m54 -83 c3 -5 1 -10 -4 -10 -6 0 -11 5 -11 10 0
6 2 10 4 10 3 0 8 -4 11 -10z m5 -51 c0 -5 9 -9 20 -9 13 0 18 -5 14 -15 -5
-12 -9 -11 -27 5 -21 20 -40 19 -20 -1 15 -15 -27 -58 -55 -56 l-21 1 23 31
c12 16 25 38 29 47 6 18 37 15 37 -3z m0 -89 c-21 -42 -30 -49 -30 -26 0 13
37 66 46 66 2 0 -5 -18 -16 -40z m-166 -115 c10 -28 11 -45 2 -67 -11 -29 -11
-29 -32 34 -15 44 -18 67 -11 76 13 17 25 4 41 -43z m-34 -125 c0 -5 -2 -10
-4 -10 -3 0 -8 5 -11 10 -3 6 -1 10 4 10 6 0 11 -4 11 -10z m329 -64 c9 -10 8
-15 -4 -20 -10 -4 -15 1 -15 14 0 24 4 25 19 6z m-544 -6 c-3 -5 -12 -10 -18
-10 -7 0 -6 4 3 10 19 12 23 12 15 0z m429 -42 c-12 -70 -25 -74 -39 -11 -6
31 -2 36 37 42 4 0 5 -14 2 -31z m-294 -53 c0 -8 -2 -15 -4 -15 -2 0 -6 7 -10
15 -3 8 -1 15 4 15 6 0 10 -7 10 -15z m402 -75 c-6 -30 -18 -39 -43 -33 -12 3
-19 14 -19 29 0 16 -6 24 -17 24 -10 1 2 12 27 25 l45 23 6 -21 c4 -12 4 -33
1 -47z m-129 -107 c-7 -2 -21 -2 -30 0 -10 3 -4 5 12 5 17 0 24 -2 18 -5z"/>
<path d="M4263 4613 c-22 -4 -31 -27 -15 -36 11 -6 72 22 72 33 0 10 -16 11
-57 3z"/>
<path d="M4295 4460 c-3 -5 -1 -10 4 -10 6 0 11 5 11 10 0 6 -2 10 -4 10 -3 0
-8 -4 -11 -10z"/>
<path d="M4221 4436 c-9 -11 -7 -15 8 -19 30 -7 48 9 23 22 -15 8 -23 7 -31
-3z"/>
<path d="M4156 4752 c-3 -6 -1 -14 5 -17 15 -10 25 3 12 16 -7 7 -13 7 -17 1z"/>
<path d="M4250 4740 c0 -5 4 -10 9 -10 6 0 13 5 16 10 3 6 -1 10 -9 10 -9 0
-16 -4 -16 -10z"/>
<path d="M1553 4733 c-20 -7 -15 -30 7 -36 20 -5 38 9 26 20 -3 4 -6 1 -6 -6
0 -7 -5 -9 -10 -6 -8 5 -7 11 1 21 11 14 5 17 -18 7z"/>
<path d="M1697 4706 c-4 -10 2 -17 16 -22 12 -3 29 -13 38 -20 13 -12 16 -12
16 0 0 8 -13 20 -29 27 -15 6 -25 15 -22 20 3 5 1 9 -4 9 -6 0 -12 -7 -15 -14z"/>
<path d="M3135 4689 c-6 -9 26 -49 39 -49 3 0 16 11 30 25 l25 25 -23 -6 c-13
-3 -27 -1 -30 5 -9 14 -33 14 -41 0z"/>
<path d="M1995 4620 c-3 -5 -2 -10 4 -10 5 0 13 5 16 10 3 6 2 10 -4 10 -5 0
-13 -4 -16 -10z"/>
<path d="M921 4585 c17 -40 61 -116 65 -112 7 7 -34 86 -54 106 -8 9 -13 11
-11 6z"/>
<path d="M3777 4542 c-21 -23 -22 -52 -2 -52 8 0 15 1 15 3 0 1 4 17 9 35 11
36 2 41 -22 14z"/>
<path d="M4516 4533 c-11 -11 -6 -23 9 -23 8 0 15 -4 15 -10 0 -5 5 -10 11
-10 5 0 7 5 3 11 -5 8 -1 8 14 0 26 -14 42 -14 22 0 -12 8 -9 9 11 5 15 -3 34
0 45 9 17 12 14 13 -34 10 -30 -3 -62 0 -72 5 -9 5 -20 6 -24 3z"/>
<path d="M1785 4500 c-3 -5 -1 -10 4 -10 6 0 11 5 11 10 0 6 -2 10 -4 10 -3 0
-8 -4 -11 -10z"/>
<path d="M1817 4476 c5 -22 43 -45 43 -26 0 5 3 17 7 27 6 16 5 16 -10 4 -15
-12 -17 -11 -17 3 0 9 -6 16 -14 16 -9 0 -12 -8 -9 -24z"/>
<path d="M990 4454 c0 -3 9 -17 20 -31 23 -29 25 -25 8 12 -10 22 -28 35 -28
19z"/>
<path d="M4550 4430 c-16 -39 -11 -43 19 -19 22 18 23 22 9 35 -13 14 -16 12
-28 -16z"/>
<path d="M1881 4441 c-11 -7 -11 -9 0 -14 10 -4 11 -8 3 -14 -7 -5 2 -21 27
-45 21 -20 41 -33 44 -28 9 14 -7 70 -20 70 -7 0 -15 9 -18 20 -6 22 -14 24
-36 11z m59 -45 c0 -3 -4 -8 -10 -11 -5 -3 -10 -1 -10 4 0 6 5 11 10 11 6 0
10 -2 10 -4z"/>
<path d="M1030 4380 c0 -5 5 -10 10 -10 6 0 10 5 10 10 0 6 -4 10 -10 10 -5 0
-10 -4 -10 -10z"/>
<path d="M2140 4359 c0 -5 5 -7 10 -4 6 3 10 8 10 11 0 2 -4 4 -10 4 -5 0 -10
-5 -10 -11z"/>
<path d="M4406 4361 c-4 -7 -5 -15 -2 -18 9 -9 19 4 14 18 -4 11 -6 11 -12 0z"/>
<path d="M1055 4350 c3 -5 11 -10 16 -10 6 0 7 5 4 10 -3 6 -11 10 -16 10 -6
0 -7 -4 -4 -10z"/>
<path d="M2218 4353 c7 -3 16 -2 19 1 4 3 -2 6 -13 5 -11 0 -14 -3 -6 -6z"/>
<path d="M3090 4325 c0 -8 4 -15 10 -15 5 0 7 7 4 15 -4 8 -8 15 -10 15 -2 0
-4 -7 -4 -15z"/>
<path d="M4355 4290 c-45 -46 -43 -61 3 -26 17 12 29 26 25 29 -3 4 0 13 7 22
24 29 4 15 -35 -25z"/>
<path d="M2065 4310 c-3 -5 -1 -10 4 -10 6 0 11 5 11 10 0 6 -2 10 -4 10 -3 0
-8 -4 -11 -10z"/>
<path d="M1115 4263 c50 -91 249 -412 252 -409 7 7 -259 455 -270 456 -5 0 3
-21 18 -47z"/>
<path d="M2210 4296 c0 -2 7 -6 15 -10 8 -3 15 -1 15 4 0 6 -7 10 -15 10 -8 0
-15 -2 -15 -4z"/>
<path d="M4081 4268 c0 -9 -4 -25 -7 -35 -5 -14 -4 -15 5 -7 7 7 11 22 8 35
-2 13 -5 16 -6 7z"/>
<path d="M2076 4245 c-3 -8 -1 -15 3 -15 5 0 11 7 15 15 3 8 1 15 -3 15 -5 0
-11 -7 -15 -15z"/>
<path d="M2150 4234 c0 -8 5 -12 10 -9 6 3 10 10 10 16 0 5 -4 9 -10 9 -5 0
-10 -7 -10 -16z"/>
<path d="M4310 4220 c-9 -6 -10 -10 -3 -10 6 0 15 5 18 10 8 12 4 12 -15 0z"/>
<path d="M4710 4208 c0 -33 9 -58 21 -58 14 0 10 43 -6 64 -14 19 -15 19 -15
-6z"/>
<path d="M2300 4195 c0 -9 5 -15 11 -13 6 2 11 8 11 13 0 5 -5 11 -11 13 -6 2
-11 -4 -11 -13z"/>
<path d="M4129 4192 c6 -12 9 -27 6 -32 -3 -6 -1 -10 4 -10 17 0 13 36 -6 51
-15 13 -15 12 -4 -9z"/>
<path d="M4403 4190 c-14 -22 -18 -70 -5 -70 22 1 29 18 23 53 -6 35 -7 36
-18 17z"/>
<path d="M2235 4150 c-4 -6 -3 -16 3 -22 6 -6 12 -6 17 2 4 6 3 16 -3 22 -6 6
-12 6 -17 -2z"/>
<path d="M2407 4153 c-10 -9 -9 -33 1 -33 4 0 8 9 8 20 0 23 0 22 -9 13z"/>
<path d="M2430 4147 c0 -6 21 -30 83 -95 19 -20 32 -45 33 -62 2 -29 1 -29
-22 -12 -23 17 -31 37 -16 45 4 2 2 3 -4 1 -6 -1 -22 11 -34 28 -18 24 -24 28
-32 17 -7 -10 -8 -8 -5 9 9 41 -9 23 -27 -28 -24 -65 -17 -80 34 -80 23 0 39
-4 36 -9 -3 -5 0 -9 7 -8 39 1 57 -6 72 -29 13 -20 14 -28 5 -34 -7 -5 -9 -16
-5 -29 5 -18 2 -24 -15 -28 -12 -3 -19 -11 -16 -19 4 -10 -3 -9 -30 3 -26 13
-37 14 -46 5 -9 -9 -9 -12 -1 -12 19 0 66 -20 61 -26 -3 -3 -29 4 -59 15 -63
24 -74 22 -20 -5 22 -11 37 -24 34 -31 -3 -7 2 -16 11 -19 8 -3 29 -30 45 -60
l29 -54 -30 -25 c-31 -26 -74 -42 -85 -31 -3 3 8 9 25 12 25 5 86 52 71 55 -2
0 -12 2 -21 4 -10 2 -15 -2 -12 -9 5 -14 -23 -42 -32 -33 -4 3 -6 18 -6 33 0
18 -3 22 -9 13 -7 -11 -9 -10 -9 3 0 10 -9 23 -20 30 -11 7 -20 19 -20 27 0
22 -41 51 -73 51 -26 0 -28 2 -16 17 13 15 12 15 -6 6 -19 -10 -45 -7 -55 7
-19 24 -187 74 -230 68 -16 -3 -30 -3 -30 -1 0 2 10 22 22 43 13 21 20 42 16
45 -3 4 -23 -1 -44 -11 -20 -10 -32 -20 -25 -22 6 -2 18 2 26 8 8 7 15 8 15 4
0 -14 -50 -84 -60 -85 -6 -1 -14 -2 -19 -3 -5 0 -13 -4 -17 -8 -4 -5 -17 -8
-28 -8 -20 -1 -20 -1 -3 -11 12 -7 27 -7 46 -1 27 10 29 8 40 -29 17 -55 36
-50 34 9 -1 7 1 11 4 8 3 -3 18 1 34 9 62 33 156 10 243 -57 47 -38 68 -63 78
-96 8 -30 -4 -50 -49 -79 -19 -13 -32 -19 -29 -14 3 5 -5 11 -18 13 -22 5 -25
0 -35 -56 -19 -101 -28 -140 -35 -157 -6 -13 1 -18 29 -23 33 -6 37 -10 32
-32 -4 -22 2 -28 44 -49 27 -14 65 -28 86 -31 21 -3 54 -9 73 -15 50 -13 86
-11 100 5 6 8 28 16 48 18 20 2 36 7 34 11 -2 5 5 15 15 23 11 8 13 13 6 14
-7 0 -13 4 -13 10 0 5 5 9 11 7 6 -1 14 4 17 12 3 9 0 11 -8 6 -9 -5 -11 -4
-6 4 4 6 11 9 15 7 11 -7 43 63 35 76 -4 6 -3 8 3 5 5 -3 46 71 91 165 63 129
80 173 70 180 -7 4 -43 8 -80 8 -44 0 -68 4 -71 13 -4 10 -6 10 -6 0 -1 -7 -5
-13 -10 -13 -4 0 -8 24 -7 53 0 52 -18 115 -38 129 -7 5 -7 8 2 8 17 0 15 52
-3 76 -13 18 -14 15 -15 -28 0 -56 -12 -60 -49 -17 -45 54 -161 173 -161 166z
m185 -353 c-15 -16 -35 -11 -35 8 0 5 7 8 15 4 8 -3 15 -1 15 5 0 6 5 7 10 4
6 -4 4 -12 -5 -21z m-27 -39 c15 -32 15 -45 1 -45 -5 0 -7 4 -4 10 3 5 -5 15
-19 22 -20 9 -23 14 -15 25 16 19 24 16 37 -12z m175 -12 c-7 -2 -21 -2 -30 0
-10 3 -4 5 12 5 17 0 24 -2 18 -5z m-101 -61 c-6 -2 -8 -10 -5 -18 3 -8 0 -14
-6 -14 -6 0 -8 -7 -5 -15 8 -19 -3 -19 -22 -1 -18 19 -18 26 1 26 8 0 15 7 15
15 0 9 6 22 13 29 10 12 13 11 16 -2 2 -9 -1 -18 -7 -20z m-86 -9 c-7 -7 -26
7 -26 19 0 6 6 6 15 -2 9 -7 13 -15 11 -17z m-149 -58 c-7 -7 -15 -11 -18 -9
-3 2 -15 -3 -25 -11 -30 -23 -40 -17 -15 9 12 13 33 24 46 24 18 0 21 -3 12
-13z m158 -35 c9 8 15 8 20 0 3 -5 -1 -10 -9 -10 -10 0 -16 -9 -16 -22 0 -21
-1 -21 -15 6 -8 15 -12 33 -8 40 5 7 9 5 11 -7 3 -14 7 -15 17 -7z m145 10 c0
-5 -2 -10 -4 -10 -3 0 -8 5 -11 10 -3 6 -1 10 4 10 6 0 11 -4 11 -10z m-76
-35 c-7 -16 -24 -21 -24 -6 0 8 7 13 27 20 1 1 0 -6 -3 -14z m-122 -45 c-3 -8
-12 -19 -19 -23 -7 -5 -11 -12 -8 -18 11 -16 -19 -9 -42 10 -27 22 -29 31 -8
31 8 0 15 -5 15 -12 0 -6 3 -8 6 -5 4 4 1 14 -7 24 -9 11 -10 14 -1 9 7 -4 19
-1 28 8 12 13 18 13 28 3 8 -6 11 -19 8 -27z m113 0 c-3 -5 -16 -15 -28 -21
-22 -12 -22 -12 -3 10 19 21 43 30 31 11z m-245 -26 c0 -8 -4 -14 -10 -14 -5
0 -10 9 -10 21 0 11 5 17 10 14 6 -3 10 -13 10 -21z m-95 6 c3 -5 1 -10 -4
-10 -6 0 -11 5 -11 10 0 6 2 10 4 10 3 0 8 -4 11 -10z m5 -67 c-28 -12 -90 -8
-90 7 0 3 13 5 29 2 20 -3 35 2 48 15 16 17 19 17 30 3 10 -12 7 -17 -17 -27z
m53 32 c4 -8 1 -17 -5 -21 -7 -4 -8 -3 -4 4 4 7 2 12 -3 12 -6 0 -11 5 -11 10
0 15 17 12 23 -5z m217 5 c0 -5 -5 -10 -11 -10 -5 0 -7 5 -4 10 3 6 8 10 11
10 2 0 4 -4 4 -10z m130 -20 c0 -5 -7 -7 -15 -4 -8 4 -15 8 -15 10 0 2 7 4 15
4 8 0 15 -4 15 -10z m-246 -34 c-6 -16 -24 -23 -24 -8 0 10 22 33 27 28 2 -2
1 -11 -3 -20z m-24 -36 c0 -5 -4 -10 -10 -10 -5 0 -10 5 -10 10 0 6 5 10 10
10 6 0 10 -4 10 -10z m-120 -9 c0 -5 -7 -12 -16 -15 -14 -5 -15 -4 -4 9 14 17
20 19 20 6z m76 -57 c-4 -9 -9 -15 -11 -12 -3 3 -3 13 1 22 4 9 9 15 11 12 3
-3 3 -13 -1 -22z m-15 -57 c-10 -9 -11 -8 -5 6 3 10 9 15 12 12 3 -3 0 -11 -7
-18z"/>
<path d="M2991 4107 c-1 -34 16 -70 30 -61 6 4 6 10 -1 19 -6 8 -15 26 -20 42
l-8 28 -1 -28z"/>
<path d="M2600 4100 c0 -14 25 -27 65 -33 22 -4 33 -4 25 0 -8 3 -32 14 -52
23 -21 10 -38 15 -38 10z"/>
<path d="M3062 4094 c-7 -8 -8 -14 -3 -14 10 0 25 19 20 25 -2 1 -10 -3 -17
-11z"/>
<path d="M2363 4080 c-11 -16 -10 -18 2 -14 8 4 15 12 15 20 0 19 -3 18 -17
-6z"/>
<path d="M3085 4070 c-3 -5 -1 -10 4 -10 6 0 11 5 11 10 0 6 -2 10 -4 10 -3 0
-8 -4 -11 -10z"/>
<path d="M3750 4059 c0 -5 5 -7 10 -4 6 3 10 8 10 11 0 2 -4 4 -10 4 -5 0 -10
-5 -10 -11z"/>
<path d="M2733 4053 c9 -2 23 -2 30 0 6 3 -1 5 -18 5 -16 0 -22 -2 -12 -5z"/>
<path d="M2790 4049 c0 -5 9 -9 20 -9 11 0 20 2 20 4 0 2 -9 6 -20 9 -11 3
-20 1 -20 -4z"/>
<path d="M2253 4029 c-36 -10 -43 -25 -15 -31 19 -4 92 23 92 35 0 9 -37 8
-77 -4z"/>
<path d="M2160 4010 c0 -4 9 -19 20 -33 28 -35 25 -39 -17 -32 -64 9 -104 26
-111 46 -5 13 -11 16 -21 9 -23 -14 2 -36 57 -50 26 -7 67 -21 92 -30 25 -10
54 -21 65 -25 15 -5 16 -8 6 -14 -9 -6 -5 -10 14 -15 14 -4 30 -4 36 0 5 3 17
0 25 -7 9 -7 37 -13 63 -13 40 -1 45 1 32 11 -9 7 -21 13 -27 13 -7 0 -22 9
-35 20 -13 11 -50 27 -81 36 -50 14 -59 21 -70 50 -10 28 -48 56 -48 34z m140
-130 c0 -5 -7 -10 -15 -10 -8 0 -15 5 -15 10 0 6 7 10 15 10 8 0 15 -4 15 -10z"/>
<path d="M3013 3957 c-125 -244 -343 -700 -338 -707 4 -6 2 -10 -3 -10 -21 0
-6 -30 20 -41 33 -13 36 -29 8 -36 -10 -3 -28 -23 -40 -44 -24 -48 -26 -67 -4
-48 14 11 16 10 12 -11 -1 -13 3 -25 10 -27 7 -3 10 1 6 11 -3 9 -1 16 5 16 6
0 11 -5 11 -11 0 -6 6 -9 14 -6 8 3 26 -3 40 -14 18 -14 26 -16 26 -7 0 9 2
10 8 2 4 -7 24 -15 46 -18 30 -5 37 -3 33 8 -4 10 5 13 44 11 27 -2 49 1 49 6
0 5 5 9 10 9 15 0 12 -17 -6 -35 -13 -13 -14 -16 -3 -14 8 1 22 -1 33 -6 12
-5 21 -3 26 5 7 11 11 11 25 0 15 -13 20 -11 41 15 15 19 22 38 18 50 -4 16
-3 17 5 5 8 -12 12 -10 20 10 9 23 10 24 10 3 1 -12 4 -28 7 -36 4 -12 0 -14
-15 -10 -24 6 -27 -6 -8 -26 10 -11 8 -12 -10 -6 -30 8 -29 -9 1 -28 29 -20
126 -38 126 -24 0 5 7 4 15 -3 8 -7 15 -20 15 -29 0 -10 11 -27 25 -39 14 -12
25 -28 25 -34 0 -9 3 -8 10 2 12 18 13 80 2 97 -5 8 -13 9 -22 3 -23 -15 -34
-12 -20 5 12 15 4 59 -10 50 -5 -3 -14 1 -22 8 -7 8 -25 20 -38 27 -16 8 -20
15 -12 18 10 3 8 8 -5 19 -10 8 -12 12 -5 8 15 -8 15 2 1 46 -14 42 -59 91
-76 85 -17 -7 -17 36 -1 52 9 9 6 17 -12 37 -13 14 -29 25 -36 25 -16 0 -27
-30 -15 -44 6 -7 4 -16 -5 -24 -12 -11 -14 -10 -14 3 0 20 -17 19 -28 -1 -6
-10 -12 -13 -16 -6 -3 6 1 18 10 26 8 9 11 16 6 16 -17 0 -50 -45 -55 -75 -4
-29 -4 -29 -6 4 0 23 6 42 20 57 l21 23 -35 6 c-20 4 -38 13 -41 21 -3 8 -14
14 -24 14 -10 0 -27 9 -37 20 -10 12 -24 19 -31 16 -6 -2 -17 1 -23 7 -16 16
-26 0 -11 -18 19 -23 6 -28 -14 -6 -17 18 -16 20 11 45 35 33 60 33 85 1 11
-14 28 -25 38 -25 10 0 27 -11 38 -25 24 -30 32 -32 25 -5 -4 14 -1 20 7 18 7
-2 15 3 17 10 3 6 0 12 -7 12 -6 0 -8 5 -5 10 4 7 13 7 26 0 18 -10 23 -6 20
13 -1 5 3 5 9 2 6 -4 9 -10 6 -13 -9 -9 33 -34 45 -27 6 4 8 14 4 23 -5 13 -2
12 14 -2 11 -10 18 -22 16 -27 -3 -4 -1 -10 3 -13 5 -3 14 6 21 20 9 20 16 24
32 19 15 -5 19 -4 15 4 -10 15 7 14 24 -1 12 -11 12 -10 0 5 -12 16 -11 23 5
52 10 19 22 32 27 29 6 -4 5 -11 -1 -17 -14 -14 -15 -67 -1 -67 5 0 7 7 4 14
-4 10 9 25 35 43 51 36 74 92 57 142 -6 19 -20 39 -31 45 -11 6 -24 17 -30 24
-6 7 -40 17 -75 22 -36 4 -90 13 -120 19 -30 6 -79 16 -107 22 -29 6 -53 15
-53 20 0 5 27 64 61 130 33 66 59 125 57 130 -2 5 -17 -19 -35 -54z m-73 -252
c10 -12 16 -13 26 -4 14 12 25 6 63 -30 13 -12 12 -13 -7 -7 -18 6 -21 4 -16
-11 6 -17 6 -17 -7 -1 -8 10 -30 19 -49 21 -28 2 -36 7 -38 25 -4 25 10 29 28
7z m130 -15 c0 -5 -10 -10 -22 -10 -19 0 -20 2 -8 10 19 13 30 13 30 0z m45
-11 c11 -16 1 -19 -13 -3 -7 8 -8 14 -3 14 5 0 13 -5 16 -11z m-15 -19 c0 -5
8 -10 18 -11 11 0 12 -2 4 -6 -7 -3 -19 0 -26 6 -7 6 -22 8 -31 4 -13 -4 -16
-3 -11 5 9 15 46 16 46 2z m108 -16 c24 1 46 -2 49 -7 4 -6 1 -7 -7 -2 -9 6
-12 4 -8 -6 5 -12 -2 -15 -30 -12 -50 4 -62 10 -62 30 0 12 3 14 8 6 4 -6 26
-10 50 -9z m-98 -50 c0 -11 -28 -33 -34 -27 -10 10 -7 25 4 18 6 -3 10 -1 10
4 0 6 5 11 10 11 6 0 10 -3 10 -6z m124 -35 c-3 -5 -12 -9 -20 -9 -14 0 -20
31 -7 44 9 9 34 -24 27 -35z m-94 11 c0 -5 -4 -10 -10 -10 -5 0 -10 5 -10 10
0 6 5 10 10 10 6 0 10 -4 10 -10z m-266 -29 c-2 -3 -12 3 -22 13 -16 17 -16
18 5 5 12 -7 20 -15 17 -18z m-24 -28 c0 -14 -3 -23 -7 -19 -10 10 -11 46 -1
46 4 0 8 -12 8 -27z m260 11 c0 -14 -3 -14 -15 -4 -8 7 -15 14 -15 16 0 2 7 4
15 4 8 0 15 -7 15 -16z m-230 -4 c0 -5 -2 -10 -4 -10 -3 0 -8 5 -11 10 -3 6
-1 10 4 10 6 0 11 -4 11 -10z m30 -10 c0 -5 -2 -10 -4 -10 -3 0 -8 5 -11 10
-3 6 -1 10 4 10 6 0 11 -4 11 -10z m35 -30 c3 -5 1 -10 -4 -10 -6 0 -11 5 -11
10 0 6 2 10 4 10 3 0 8 -4 11 -10z m101 -7 c-4 -9 -2 -20 5 -23 6 -4 7 -10 3
-12 -5 -3 -17 3 -26 14 -15 15 -15 18 -3 18 8 0 15 5 15 10 0 6 3 10 6 10 3 0
3 -8 0 -17z m99 7 c-3 -5 -12 -10 -18 -10 -7 0 -6 4 3 10 19 12 23 12 15 0z
m-287 -19 c13 -1 20 -5 17 -11 -3 -5 -19 -8 -35 -6 -17 2 -30 -1 -30 -6 0 -5
-4 -6 -10 -3 -19 12 -10 32 13 29 12 -1 32 -3 45 -3z m112 -5 c0 -2 -7 -7 -16
-10 -8 -3 -12 -2 -9 4 6 10 25 14 25 6z m125 -26 c-3 -5 -13 -10 -21 -10 -8 0
-12 5 -9 10 3 6 13 10 21 10 8 0 12 -4 9 -10z m55 -18 c0 -13 -12 -22 -22 -16
-10 6 -1 24 13 24 5 0 9 -4 9 -8z m-272 -118 c-4 -3 -12 5 -18 18 -12 22 -12
22 6 6 10 -10 15 -20 12 -24z m-23 -24 c3 -5 1 -10 -4 -10 -6 0 -11 5 -11 10
0 6 2 10 4 10 3 0 8 -4 11 -10z m179 -61 c-3 -5 -10 -7 -15 -3 -5 3 -7 10 -3
15 3 5 10 7 15 3 5 -3 7 -10 3 -15z m42 -16 c-7 -7 -26 7 -26 19 0 6 6 6 15
-2 9 -7 13 -15 11 -17z m-66 -3 c0 -5 -4 -10 -10 -10 -5 0 -10 5 -10 10 0 6 5
10 10 10 6 0 10 -4 10 -10z m129 -45 c13 0 14 -5 6 -27 -4 -10 -11 -15 -16
-12 -5 3 -7 9 -4 14 3 4 -2 13 -10 20 -7 6 -11 19 -8 27 6 14 7 14 13 -3 4
-10 12 -19 19 -19z m-341 -23 c22 -22 35 -62 20 -62 -5 0 -6 -9 -3 -20 4 -11
2 -20 -4 -20 -6 0 -10 16 -9 35 1 20 -6 43 -15 53 -30 33 -19 44 11 14z m63
-65 c-12 -12 -21 -16 -21 -9 0 16 34 50 39 39 2 -5 -6 -19 -18 -30z m94 14 c3
-5 1 -12 -4 -15 -5 -3 -11 1 -15 9 -6 16 9 21 19 6z m355 -161 c-8 -5 -17 -7
-19 -4 -3 3 1 9 9 14 8 5 17 7 19 4 3 -3 -1 -9 -9 -14z"/>
<path d="M3907 4003 c-7 -11 10 -40 18 -31 4 4 3 14 -3 24 -5 9 -12 12 -15 7z"/>
<path d="M2305 3970 c-7 -12 27 -22 37 -12 6 6 1 12 -11 15 -12 3 -23 2 -26
-3z"/>
<path d="M2410 3950 c-18 -12 -2 -12 25 0 13 6 15 9 5 9 -8 0 -22 -4 -30 -9z"/>
<path d="M3920 3952 c0 -5 -12 -13 -26 -16 -20 -5 -24 -10 -15 -19 16 -16 14
-22 -16 -36 -24 -11 -25 -11 -13 4 12 14 11 18 -1 26 -8 5 -21 9 -30 9 -20 0
-69 -23 -69 -32 0 -5 -7 -8 -15 -8 -24 0 -17 -28 11 -43 l26 -14 -61 -46 c-34
-26 -63 -47 -66 -47 -11 0 -45 -41 -45 -53 0 -7 -9 -41 -21 -75 -15 -44 -19
-71 -13 -90 11 -39 11 -56 -1 -64 -6 -5 -2 -8 9 -8 10 0 44 15 75 34 130 78
230 113 247 85 5 -8 32 -9 90 -5 78 7 83 6 89 -14 5 -15 12 -19 26 -15 10 4
19 2 19 -3 0 -11 46 -26 93 -30 9 -1 16 -7 15 -14 -2 -7 2 -12 9 -13 6 0 27
-22 46 -50 19 -27 40 -51 48 -51 8 -1 17 -2 21 -3 4 0 3 -13 -3 -27 -12 -34
-1 -46 92 -109 l69 -46 30 18 c28 16 34 26 31 46 0 4 3 7 7 7 5 0 15 18 22 39
11 34 10 44 -6 77 -12 25 -28 41 -44 44 -17 4 -21 8 -12 14 6 4 17 4 22 1 14
-9 13 8 -2 23 -9 9 -9 12 0 12 20 0 13 52 -10 77 -41 44 1 42 67 -3 41 -27 63
-24 25 4 -94 67 -257 161 -272 156 -12 -4 -16 -1 -13 8 6 16 -349 233 -381
233 -11 0 -28 6 -37 14 -10 7 -17 9 -17 3z m20 -67 c0 -7 -93 -46 -97 -41 -3
3 15 13 39 24 45 21 58 25 58 17z m-230 -169 c0 -7 -9 -16 -20 -19 -25 -6 -26
8 -2 22 22 13 22 13 22 -3z m710 -56 c13 -9 13 -10 0 -10 -8 0 -22 5 -30 10
-13 9 -13 10 0 10 8 0 22 -5 30 -10z m60 -90 c0 -5 -4 -10 -10 -10 -5 0 -10 5
-10 10 0 6 5 10 10 10 6 0 10 -4 10 -10z m-123 -52 c-3 -8 -6 -5 -6 6 -1 11 2
17 5 13 3 -3 4 -12 1 -19z m180 -60 c-3 -8 -6 -5 -6 6 -1 11 2 17 5 13 3 -3 4
-12 1 -19z m-47 -85 c0 -5 -5 -15 -10 -23 -8 -12 -10 -11 -10 8 0 12 5 22 10
22 6 0 10 -3 10 -7z m-3 -155 c-3 -8 -6 -5 -6 6 -1 11 2 17 5 13 3 -3 4 -12 1
-19z"/>
<path d="M2517 3891 c-21 -36 -21 -36 4 -38 17 -2 19 0 8 14 -11 13 -10 17 4
28 18 13 22 25 9 25 -4 0 -15 -13 -25 -29z"/>
<path d="M4701 3874 c0 -11 3 -14 6 -6 3 7 2 16 -1 19 -3 4 -6 -2 -5 -13z"/>
<path d="M1870 3850 c0 -11 4 -20 9 -20 17 0 19 15 5 28 -12 11 -14 9 -14 -8z"/>
<path d="M1380 3831 c0 -6 4 -13 10 -16 6 -3 7 1 4 9 -7 18 -14 21 -14 7z"/>
<path d="M1400 3791 c0 -5 7 -15 17 -22 15 -13 15 -12 4 9 -12 23 -21 28 -21
13z"/>
<path d="M4460 3766 c0 -2 7 -9 15 -16 13 -11 14 -10 9 4 -5 14 -24 23 -24 12z"/>
<path d="M1431 3745 c0 -5 6 -19 14 -29 8 -11 15 -15 15 -10 0 6 -7 19 -15 30
-8 10 -14 15 -14 9z"/>
<path d="M4500 3734 c0 -8 5 -12 10 -9 6 4 8 11 5 16 -9 14 -15 11 -15 -7z"/>
<path d="M1529 3582 c6 -12 16 -24 22 -28 8 -4 8 -1 0 14 -6 12 -16 24 -22 28
-8 4 -8 1 0 -14z"/>
<path d="M4090 3500 c0 -5 5 -10 10 -10 6 0 10 5 10 10 0 6 -4 10 -10 10 -5 0
-10 -4 -10 -10z"/>
<path d="M3875 3464 c-11 -17 -12 -25 -4 -22 6 2 16 14 20 26 11 29 5 28 -16
-4z"/>
<path d="M1622 3450 c7 -11 16 -20 21 -20 4 0 3 9 -3 20 -6 11 -15 20 -20 20
-6 0 -5 -9 2 -20z"/>
<path d="M3923 3443 c4 -6 2 -13 -4 -15 -5 -2 3 -13 18 -24 35 -26 93 -22 93
6 0 12 -10 19 -37 23 -21 3 -47 8 -57 13 -13 5 -17 4 -13 -3z"/>
<path d="M4790 3441 c0 -5 7 -12 16 -15 14 -5 15 -4 4 9 -14 17 -20 19 -20 6z"/>
<path d="M3820 3391 c0 -6 5 -13 10 -16 6 -3 10 1 10 9 0 9 -4 16 -10 16 -5 0
-10 -4 -10 -9z"/>
<path d="M3036 3371 c-3 -5 1 -11 9 -15 8 -3 15 -1 15 4 0 13 -18 22 -24 11z"/>
<path d="M3983 3367 c2 -7 14 -11 26 -10 11 2 21 -2 21 -8 0 -5 -4 -7 -10 -4
-5 3 -10 -1 -10 -10 0 -11 5 -15 14 -12 9 4 16 -4 19 -23 4 -15 18 -40 32 -56
14 -15 34 -41 45 -58 10 -17 29 -38 41 -46 12 -8 27 -20 34 -27 7 -7 15 -9 19
-6 3 3 9 -8 12 -24 4 -23 13 -32 33 -37 44 -9 51 -18 42 -56 -5 -19 -12 -43
-16 -52 -5 -12 -3 -18 7 -18 17 0 41 70 32 94 -8 20 23 33 39 17 15 -15 27
-14 27 4 0 8 6 15 13 15 6 0 23 3 36 7 20 5 22 3 17 -15 -5 -15 1 -25 24 -42
16 -12 34 -18 40 -15 6 3 7 -1 4 -9 -9 -24 9 -19 25 7 7 12 10 19 6 15 -4 -4
-15 1 -24 11 -10 11 -25 19 -35 18 -11 -1 -21 4 -24 12 -3 8 0 11 7 7 6 -4 11
-5 11 -2 0 13 -53 33 -115 43 -16 2 -36 6 -43 8 -7 3 -13 4 -15 3 -1 0 -20 8
-42 19 -22 11 -55 24 -72 28 -18 3 -43 19 -55 34 -51 62 -93 128 -103 161 -9
28 -16 35 -38 37 -18 1 -27 -2 -24 -10z"/>
<path d="M3740 3342 c0 -5 7 -9 15 -9 8 0 15 4 15 9 0 4 -7 8 -15 8 -8 0 -15
-4 -15 -8z"/>
<path d="M3898 3343 c6 -2 18 -2 25 0 6 3 1 5 -13 5 -14 0 -19 -2 -12 -5z"/>
<path d="M3115 3330 c-12 -19 25 -40 47 -26 10 6 18 16 18 23 0 16 -26 17 -36
2 -5 -8 -9 -8 -14 1 -6 9 -9 9 -15 0z"/>
<path d="M1873 3309 c-1 -13 5 -19 18 -19 24 0 25 12 1 26 -15 10 -18 8 -19
-7z"/>
<path d="M3750 3270 c-8 -5 -11 -12 -7 -16 4 -4 13 -2 19 4 15 15 7 24 -12 12z"/>
<path d="M3903 3263 c9 -9 19 -14 23 -11 10 10 -6 28 -24 28 -15 0 -15 -1 1
-17z"/>
<path d="M3603 3244 c-34 -38 -37 -45 -23 -54 10 -6 10 -15 2 -38 -9 -26 -6
-39 21 -95 l32 -65 64 -16 c92 -23 97 -33 19 -37 -46 -3 -58 -19 -15 -19 12
-1 33 -7 47 -15 l25 -14 -23 -1 c-12 0 -41 9 -63 21 -44 22 -64 18 -33 -7 13
-11 15 -17 7 -20 -29 -12 -8 -19 63 -20 41 -1 81 -7 87 -13 6 -6 22 -11 36
-11 19 0 22 -3 13 -12 -21 -21 -104 -15 -139 10 -17 12 -35 22 -40 22 -4 0 -3
-4 2 -8 6 -4 17 -16 25 -27 14 -18 14 -19 -1 -7 -9 7 -24 9 -33 6 -14 -5 -9
-10 20 -23 25 -11 34 -20 26 -25 -6 -4 -20 -2 -31 4 -34 17 -38 11 -6 -10 17
-11 42 -20 58 -20 21 0 27 -5 28 -22 1 -22 1 -22 8 2 5 18 13 24 30 23 12 -2
36 3 54 11 28 11 34 11 46 -1 11 -12 11 -14 0 -12 -37 5 -47 -3 -57 -43 -19
-76 -23 -116 -12 -123 16 -10 23 0 30 48 l7 42 17 -38 c10 -23 21 -35 28 -31
8 5 9 2 5 -10 -4 -10 -7 -22 -7 -27 0 -5 -12 -6 -27 -3 -28 7 -28 7 -9 -14 10
-12 23 -19 27 -16 5 3 9 1 9 -4 0 -5 10 -8 22 -8 15 1 27 -7 33 -21 17 -40 93
-57 78 -18 -3 9 1 15 9 15 10 0 13 -9 10 -30 -3 -19 0 -30 8 -30 7 0 9 -8 5
-22 -5 -21 -5 -21 7 -6 13 15 16 15 38 -2 15 -11 27 -14 34 -8 6 5 20 15 31
23 17 13 18 16 5 25 -13 9 -13 11 0 21 11 8 12 12 3 16 -10 4 -10 9 1 25 13
18 13 25 0 49 -17 33 -28 38 -19 9 10 -32 -9 -23 -22 10 -8 22 -16 28 -28 24
-13 -5 -15 -14 -11 -38 4 -17 11 -32 16 -34 5 -2 6 -10 3 -18 -3 -8 1 -21 8
-30 12 -14 11 -16 -6 -13 -13 3 -20 13 -22 33 -1 16 -7 34 -13 40 -5 5 -10 34
-10 63 0 42 4 54 20 63 22 12 17 35 -5 26 -8 -3 -19 1 -25 9 -9 10 -6 15 9 20
12 3 21 10 21 14 0 5 12 6 26 3 23 -4 25 -2 19 17 -5 16 -2 21 10 21 9 0 26 5
37 11 16 9 18 13 7 20 -11 6 -9 10 6 15 39 15 77 70 52 74 -11 2 -73 -54 -80
-72 -2 -7 -8 -9 -13 -4 -5 5 -4 11 4 13 18 7 4 23 -19 23 -29 0 -23 25 22 89
23 33 40 64 37 71 -2 6 -16 -6 -31 -27 l-27 -38 6 31 c5 25 1 35 -23 55 -26
22 -65 75 -92 124 -22 41 -10 -4 14 -51 14 -27 25 -55 25 -62 0 -7 7 -15 15
-18 18 -7 20 -24 2 -24 -7 0 -18 -9 -25 -20 -7 -11 -17 -20 -23 -20 -5 0 -7 4
-4 10 3 5 -1 20 -9 32 -15 20 -15 19 -11 -23 5 -41 4 -43 -10 -24 -9 11 -14
24 -11 30 2 5 -3 16 -10 23 -11 10 -13 10 -11 -5 1 -10 -1 -18 -4 -18 -3 0
-13 -8 -23 -17 -19 -20 -46 -24 -46 -8 0 6 -5 10 -11 10 -5 0 -7 -4 -4 -10 12
-20 -34 -9 -49 11 -9 13 -19 18 -28 13 -7 -4 -10 -4 -6 1 4 4 -9 16 -30 26
-42 22 -45 23 -37 9 3 -5 2 -10 -3 -10 -4 0 -34 29 -65 64 -56 63 -57 66 -57
125 0 34 -3 61 -7 61 -5 0 -18 -12 -30 -26z m538 -282 c15 -17 15 -20 -1 -30
-27 -16 -45 0 -29 27 8 11 14 21 14 21 0 0 8 -8 16 -18z m-211 -28 c0 -8 -5
-12 -10 -9 -6 4 -8 11 -5 16 9 14 15 11 15 -7z m-134 -15 c3 -6 2 -15 -4 -21
-6 -6 -11 -2 -15 11 -5 22 7 29 19 10z m102 -23 c23 -7 39 -15 36 -19 -4 -4
-2 -7 5 -7 7 0 9 -5 5 -11 -9 -15 -101 -6 -117 11 -10 10 -7 11 11 5 12 -3 22
-3 22 0 0 4 -10 16 -22 27 -21 18 -21 19 -3 12 11 -4 39 -12 63 -18z m242 -26
c0 -5 -4 -10 -10 -10 -5 0 -10 5 -10 10 0 6 5 10 10 10 6 0 10 -4 10 -10z
m-118 -32 c-8 -8 -9 -4 -5 13 4 13 8 18 11 10 2 -7 -1 -18 -6 -23z m145 -13
c0 -8 -4 -12 -9 -9 -4 3 -8 9 -8 15 0 5 4 9 8 9 5 0 9 -7 9 -15z m-380 -41
c-5 -5 -57 13 -57 20 0 3 14 0 31 -6 16 -6 28 -12 26 -14z m173 -4 c0 -5 -2
-10 -4 -10 -3 0 -8 5 -11 10 -3 6 -1 10 4 10 6 0 11 -4 11 -10z m18 -78 c2 -7
-2 -10 -12 -6 -9 3 -16 11 -16 16 0 13 23 5 28 -10z m2 -46 c0 -11 -19 -15
-25 -6 -3 5 1 10 9 10 9 0 16 -2 16 -4z m-20 -36 c0 -5 -2 -10 -4 -10 -3 0 -8
5 -11 10 -3 6 -1 10 4 10 6 0 11 -4 11 -10z m110 -55 c-7 -9 -15 -13 -19 -10
-3 3 1 10 9 15 21 14 24 12 10 -5z m-125 -15 c3 -5 1 -10 -4 -10 -6 0 -11 5
-11 10 0 6 2 10 4 10 3 0 8 -4 11 -10z m50 -9 c3 -5 1 -12 -5 -16 -5 -3 -10 1
-10 9 0 18 6 21 15 7z m205 -16 c0 -2 -9 -9 -20 -15 -16 -9 -18 -8 -14 5 5 13
34 22 34 10z m-160 -25 c0 -5 -7 -10 -15 -10 -8 0 -15 5 -15 10 0 6 7 10 15
10 8 0 15 -4 15 -10z"/>
<path d="M3825 3237 c-4 -10 -5 -21 -1 -24 10 -10 18 4 13 24 -4 17 -4 17 -12
0z"/>
<path d="M3411 3174 c0 -11 3 -14 6 -6 3 7 2 16 -1 19 -3 4 -6 -2 -5 -13z"/>
<path d="M3487 3149 c-22 -11 -45 -18 -53 -15 -8 3 -14 2 -14 -3 0 -16 40 -19
54 -5 8 8 19 14 23 14 5 0 18 7 29 15 28 21 5 18 -39 -6z"/>
<path d="M3960 3145 c0 -8 4 -15 9 -15 5 0 11 7 15 15 3 9 0 15 -9 15 -8 0
-15 -7 -15 -15z"/>
<path d="M2212 3139 c21 -11 88 -15 85 -4 -1 6 -24 10 -50 11 -27 0 -43 -3
-35 -7z"/>
<path d="M3887 3113 c-12 -11 -8 -23 8 -23 8 0 15 7 15 15 0 16 -12 20 -23 8z"/>
<path d="M4034 3105 c-4 -9 6 -34 22 -58 33 -50 43 -34 17 28 -19 47 -30 55
-39 30z"/>
<path d="M2540 3060 c0 -5 5 -10 11 -10 6 0 8 -9 3 -22 -7 -23 -104 -232 -130
-280 -17 -31 -17 -38 -4 -38 6 0 10 4 10 10 0 5 36 83 80 174 44 90 80 167 80
170 0 3 -11 6 -25 6 -14 0 -25 -4 -25 -10z"/>
<path d="M3997 3063 c-4 -3 -7 -11 -7 -17 0 -6 5 -5 12 2 6 6 9 14 7 17 -3 3
-9 2 -12 -2z"/>
<path d="M4410 3021 c0 -15 -6 -19 -25 -17 -24 3 -54 -19 -42 -30 9 -9 28 6
22 17 -3 5 1 6 10 3 14 -6 12 -10 -10 -24 -29 -19 -60 -58 -52 -66 3 -3 1 -19
-3 -35 -7 -22 -5 -29 6 -29 8 0 14 -4 14 -10 0 -5 -7 -7 -15 -4 -10 4 -15 0
-15 -14 0 -24 16 -38 23 -20 4 10 8 9 17 -2 11 -13 11 -13 7 1 -6 19 46 44 71
33 15 -6 15 -8 -3 -12 -11 -2 -24 -9 -30 -14 -7 -7 -1 -8 18 -4 19 4 26 3 22
-4 -3 -5 -1 -10 4 -10 6 0 11 9 11 20 0 26 40 28 47 2 2 -10 16 -26 31 -34 23
-13 29 -14 40 -2 16 18 15 27 -3 20 -9 -3 -15 1 -15 11 0 12 7 14 29 10 18 -4
33 -1 40 7 9 11 6 12 -16 8 -21 -4 -25 -2 -20 11 3 9 -1 18 -9 21 -22 9 -24 8
-24 -12 0 -9 -9 -23 -20 -30 -12 -7 -20 -8 -20 -2 0 5 4 10 10 10 5 0 12 11
16 25 8 31 34 55 34 31 0 -16 11 -20 39 -17 7 2 10 -2 6 -9 -6 -9 -2 -9 12 -1
11 6 23 7 27 4 12 -12 5 12 -8 30 -13 17 -15 17 -30 1 -9 -9 -20 -13 -24 -10
-3 4 -1 10 5 14 9 6 10 24 4 66 0 5 -18 6 -39 2 -34 -5 -42 -2 -72 27 -31 30
-32 31 -25 7 7 -22 6 -23 -9 -8 -9 9 -13 23 -10 31 3 8 -2 17 -10 20 -11 5
-16 0 -16 -12z m-45 -100 c-8 -14 -25 -14 -25 0 0 5 5 7 10 4 6 -3 10 -1 10 6
0 7 3 10 6 6 3 -3 3 -10 -1 -16z m-7 -49 c6 -18 -15 -14 -22 4 -4 10 -1 14 6
12 6 -2 14 -10 16 -16z m72 3 c0 -8 -7 -15 -15 -15 -8 0 -15 7 -15 15 0 8 7
15 15 15 8 0 15 -7 15 -15z m-40 -30 c0 -5 -5 -3 -10 5 -5 8 -10 20 -10 25 0
6 5 3 10 -5 5 -8 10 -19 10 -25z m-20 -5 c0 -5 -5 -10 -11 -10 -5 0 -7 5 -4
10 3 6 8 10 11 10 2 0 4 -4 4 -10z"/>
<path d="M3916 3022 c-2 -4 -2 -13 2 -19 5 -8 15 -5 31 8 l23 19 -25 0 c-14 0
-28 -4 -31 -8z"/>
<path d="M2900 2992 c0 -5 7 -15 15 -22 8 -7 15 -8 15 -2 0 5 -7 15 -15 22 -8
7 -15 8 -15 2z"/>
<path d="M3080 2953 c1 -19 16 -31 29 -24 7 5 10 14 7 20 -8 12 -36 15 -36 4z"/>
<path d="M3134 2929 c-3 -6 -1 -16 5 -22 8 -8 11 -5 11 11 0 24 -5 28 -16 11z"/>
<path d="M4200 2930 c0 -5 5 -10 11 -10 5 0 7 5 4 10 -3 6 -8 10 -11 10 -2 0
-4 -4 -4 -10z"/>
<path d="M3768 2843 c7 -3 16 -2 19 1 4 3 -2 6 -13 5 -11 0 -14 -3 -6 -6z"/>
<path d="M3600 2803 c-8 -4 -23 -17 -34 -30 -10 -13 -24 -22 -31 -19 -8 3 -18
-1 -25 -8 -8 -11 -1 -18 32 -32 24 -9 47 -17 51 -15 5 1 6 -3 2 -8 -3 -6 3
-15 14 -20 14 -8 21 -8 24 2 4 9 8 8 16 -3 5 -8 12 -12 16 -9 3 3 -16 27 -41
53 l-47 46 23 25 c24 26 24 27 0 18z m25 -113 c3 -5 1 -10 -4 -10 -6 0 -11 5
-11 10 0 6 2 10 4 10 3 0 8 -4 11 -10z"/>
<path d="M4680 2740 c0 -5 5 -10 11 -10 5 0 7 5 4 10 -3 6 -8 10 -11 10 -2 0
-4 -4 -4 -10z"/>
<path d="M3433 2733 c9 -2 25 -2 35 0 9 3 1 5 -18 5 -19 0 -27 -2 -17 -5z"/>
<path d="M4490 2715 c-7 -8 -8 -15 -2 -15 5 0 15 7 22 15 7 8 8 15 2 15 -5 0
-15 -7 -22 -15z"/>
<path d="M3505 2684 c10 -8 23 -14 29 -14 5 0 6 -3 3 -7 -9 -8 24 -32 46 -33
9 0 17 5 17 10 0 6 -5 10 -10 10 -6 0 -20 9 -31 19 -11 10 -33 21 -47 24 -25
5 -25 4 -7 -9z"/>
<path d="M3771 2663 c-1 -23 4 -45 9 -48 12 -7 12 29 0 65 -7 21 -8 19 -9 -17z"/>
<path d="M3488 2663 c7 -3 16 -2 19 1 4 3 -2 6 -13 5 -11 0 -14 -3 -6 -6z"/>
<path d="M3681 2657 c2 -1 13 -9 24 -17 19 -14 19 -14 6 3 -7 9 -18 17 -24 17
-6 0 -8 -1 -6 -3z"/>
<path d="M4130 2634 c0 -15 27 -26 35 -14 4 6 1 10 -5 10 -6 0 -9 4 -6 8 3 5
-1 9 -9 9 -8 0 -15 -6 -15 -13z"/>
<path d="M3495 2627 c11 -9 24 -17 29 -17 5 0 29 -9 53 -21 23 -11 48 -19 55
-17 13 5 -47 38 -69 38 -7 0 -13 4 -13 9 0 6 -8 9 -17 9 -10 0 -27 3 -38 7
l-20 8 20 -16z"/>
<path d="M3722 2610 c-12 -20 -12 -21 13 -4 28 18 31 24 12 24 -7 0 -18 -9
-25 -20z"/>
<path d="M3697 2573 c-4 -3 -7 -16 -6 -27 0 -19 1 -19 10 3 10 24 8 36 -4 24z"/>
<path d="M2675 2510 c3 -5 11 -10 16 -10 6 0 7 5 4 10 -3 6 -11 10 -16 10 -6
0 -7 -4 -4 -10z"/>
<path d="M2740 2480 c0 -5 7 -10 16 -10 8 0 12 5 9 10 -3 6 -10 10 -16 10 -5
0 -9 -4 -9 -10z"/>
<path d="M2790 2461 c0 -5 5 -13 10 -16 6 -3 10 -2 10 4 0 5 -4 13 -10 16 -5
3 -10 2 -10 -4z"/>
<path d="M3900 2449 c0 -11 35 -34 83 -54 58 -24 43 -3 -23 31 -33 17 -60 28
-60 23z"/>
<path d="M3636 2399 c-43 -22 -76 -42 -74 -45 6 -5 178 74 178 81 0 11 -30 1
-104 -36z"/>
<path d="M4260 2425 c0 -18 19 -40 26 -32 4 4 0 15 -9 24 -9 10 -17 13 -17 8z"/>
<path d="M4103 2398 c-5 -7 -6 -29 -2 -48 7 -39 10 -34 13 23 3 41 2 42 -11
25z"/>
<path d="M2940 2390 c0 -5 5 -10 10 -10 6 0 10 5 10 10 0 6 -4 10 -10 10 -5 0
-10 -4 -10 -10z"/>
<path d="M4240 2380 c0 -19 3 -21 12 -12 9 9 9 15 0 24 -9 9 -12 7 -12 -12z"/>
<path d="M2985 2373 c16 -16 165 -72 165 -63 0 5 -10 12 -22 16 -13 3 -41 14
-63 24 -54 24 -93 35 -80 23z"/>
<path d="M3505 2324 l-30 -25 32 15 c17 9 35 20 38 26 11 18 -10 10 -40 -16z"/>
<path d="M3160 2305 c0 -6 86 -46 128 -59 12 -4 22 -4 22 1 0 4 -30 19 -67 33
-37 14 -71 27 -75 28 -5 2 -8 1 -8 -3z"/>
<path d="M3405 2270 c-33 -22 -29 -26 10 -8 14 6 25 15 25 20 0 11 -1 11 -35
-12z"/>
<path d="M3340 2240 l-25 -8 28 -1 c15 -1 27 4 27 9 0 6 -1 10 -2 9 -2 -1 -14
-5 -28 -9z"/>
<path d="M4166 2241 c-3 -4 1 -16 8 -26 15 -21 46 -14 46 10 0 9 -4 13 -10 10
-5 -3 -10 -1 -10 4 0 13 -27 15 -34 2z"/>
<path d="M4133 2196 c12 -10 15 -16 7 -21 -8 -5 -8 -10 0 -20 7 -8 9 -18 6
-23 -3 -6 1 -15 9 -22 8 -7 15 -21 15 -31 0 -10 5 -21 10 -24 16 -10 12 18 -6
43 -10 14 -14 34 -11 50 6 33 -8 62 -31 62 -16 -1 -16 -2 1 -14z"/>
<path d="M4176 2133 c-6 -14 -5 -15 5 -6 7 7 10 15 7 18 -3 3 -9 -2 -12 -12z"/>
<path d="M5509 2016 c-22 -25 -39 -34 -60 -34 -15 1 -26 5 -23 10 3 5 12 7 20
4 8 -3 14 -2 14 3 0 12 -45 22 -64 15 -8 -3 -15 -13 -15 -22 0 -9 -1 -24 -3
-32 -2 -8 1 -15 5 -15 5 0 13 -8 18 -17 6 -10 16 -18 23 -18 8 0 17 -7 20 -16
3 -9 2 -12 -5 -9 -16 10 -37 -14 -32 -35 6 -23 14 -25 31 -8 9 9 12 8 12 -4 0
-20 27 -31 33 -13 3 7 3 22 0 33 -3 14 5 27 31 47 19 15 40 24 46 20 5 -3 10
-2 10 3 0 5 9 20 20 33 12 13 20 34 18 49 -2 20 -8 24 -28 22 -13 -1 -27 -8
-32 -14 -4 -7 -10 -9 -14 -5 -4 4 1 14 12 22 10 8 13 15 7 15 -7 0 -27 -15
-44 -34z m51 -56 c0 -5 -5 -10 -11 -10 -5 0 -7 5 -4 10 3 6 8 10 11 10 2 0 4
-4 4 -10z"/>
<path d="M4210 2036 c0 -2 7 -7 16 -10 8 -3 12 -2 9 4 -6 10 -25 14 -25 6z"/>
<path d="M4290 2010 c0 -5 5 -10 11 -10 5 0 7 5 4 10 -3 6 -8 10 -11 10 -2 0
-4 -4 -4 -10z"/>
<path d="M4236 2002 c-4 -7 -2 -12 5 -12 8 0 8 -4 -1 -15 -10 -13 -9 -15 9
-15 24 0 26 9 8 35 -10 12 -16 14 -21 7z"/>
<path d="M4296 1961 c-4 -5 -3 -16 0 -25 7 -17 -11 -22 -21 -6 -3 6 -11 10
-17 10 -6 0 -5 -6 3 -16 10 -12 10 -20 1 -34 -9 -15 -7 -25 11 -52 l23 -33
-20 -34 -19 -33 24 6 c22 7 21 4 -9 -21 -24 -21 -32 -36 -32 -59 0 -34 23 -63
35 -44 3 6 10 8 15 5 5 -3 19 -1 30 5 16 8 24 8 35 -4 20 -20 19 -29 -4 -21
-11 3 -22 1 -25 -4 -8 -12 50 -23 83 -17 27 6 41 22 41 48 0 9 6 18 13 21 9 3
9 9 -2 30 -8 14 -18 24 -23 21 -8 -5 -12 10 -9 30 3 15 -39 54 -65 60 -14 4
-22 11 -18 17 3 6 17 8 31 5 35 -9 48 2 27 25 -9 10 -14 25 -11 33 4 10 -9 23
-38 41 -30 17 -42 30 -39 40 7 16 -11 21 -20 6z m64 -101 c0 -5 -4 -10 -10
-10 -5 0 -10 5 -10 10 0 6 5 10 10 10 6 0 10 -4 10 -10z m10 -84 c0 -3 -4 -8
-10 -11 -5 -3 -10 -1 -10 4 0 6 5 11 10 11 6 0 10 -2 10 -4z m30 -36 c6 -12
10 -37 8 -57 -2 -29 -8 -37 -25 -39 -15 -3 -23 1 -23 11 0 8 9 15 20 15 17 0
19 4 14 28 -4 15 -11 31 -15 37 -12 12 -11 25 1 25 5 0 14 -9 20 -20z m-67
-26 c-3 -8 -11 -13 -18 -10 -7 2 -18 -1 -24 -7 -6 -6 -11 -7 -11 -1 0 16 22
34 42 34 12 0 15 -5 11 -16z"/>
<path d="M5375 1900 c3 -5 8 -10 11 -10 2 0 4 5 4 10 0 6 -5 10 -11 10 -5 0
-7 -4 -4 -10z"/>
<path d="M5518 1883 c-17 -4 -34 -33 -19 -33 4 0 16 9 26 20 10 11 16 19 14
19 -2 -1 -11 -3 -21 -6z"/>
<path d="M2956 1864 c-9 -22 -8 -24 9 -24 8 0 15 6 15 14 0 22 -17 28 -24 10z"/>
<path d="M2901 1834 c0 -11 3 -14 6 -6 3 7 2 16 -1 19 -3 4 -6 -2 -5 -13z"/>
<path d="M2949 1813 c-8 -9 -9 -14 -2 -10 6 4 13 3 15 -3 2 -6 9 -1 16 10 10
16 10 20 -2 20 -7 0 -20 -8 -27 -17z"/>
<path d="M2685 1720 c3 -5 8 -10 11 -10 2 0 4 5 4 10 0 6 -5 10 -11 10 -5 0
-7 -4 -4 -10z"/>
</g>
</svg>
