<?xml version="1.0" standalone="no"?>
<!DOCTYPE svg PUBLIC "-//W3C//DTD SVG 20010904//EN"
 "http://www.w3.org/TR/2001/REC-SVG-20010904/DTD/svg10.dtd">
<svg version="1.0" xmlns="http://www.w3.org/2000/svg"
 width="611.000000pt" height="607.000000pt" viewBox="0 0 611.000000 607.000000"
 preserveAspectRatio="xMidYMid meet">

<g transform="translate(0.000000,607.000000) scale(0.100000,-0.100000)"
fill="#000000" stroke="none">
<path d="M1385 6033 c-374 -17 -684 -140 -923 -367 -209 -199 -327 -434 -385
-766 -19 -110 -20 -175 -24 -1650 -4 -1374 2 -1948 20 -1966 3 -3 35 17 72 45
173 133 358 236 585 326 80 32 146 59 147 59 2 1 -2 29 -8 62 -40 232 -41 273
-46 1094 -5 856 3 1155 37 1351 96 554 462 917 1016 1009 192 31 445 40 1179
40 704 0 985 -9 1155 -36 562 -91 932 -452 1029 -1004 33 -188 41 -406 41
-1190 0 -968 -13 -1161 -91 -1394 -115 -344 -365 -605 -701 -732 l-77 -29 45
-70 c50 -78 157 -264 160 -280 1 -5 16 -41 33 -80 41 -96 82 -205 87 -229 1
-12 11 -54 20 -95 l18 -73 75 7 c615 56 1059 472 1173 1096 l23 124 0 1745 c0
1645 -1 1752 -18 1859 -85 529 -400 912 -873 1064 -154 50 -269 67 -504 77
-180 8 -3107 11 -3265 3z"/>
<path d="M2325 4860 c-326 -10 -450 -28 -605 -90 -144 -57 -281 -178 -363
-322 -39 -68 -85 -213 -103 -325 -31 -200 -40 -1547 -13 -1973 13 -211 40
-342 68 -338 9 2 18 6 21 10 3 3 19 8 37 11 18 3 47 12 64 21 18 9 41 16 51
16 11 0 27 4 36 9 37 20 249 61 392 77 30 3 73 9 95 12 48 9 352 7 450 -2 39
-4 89 -7 113 -8 23 -1 45 -5 48 -10 3 -4 22 -8 42 -7 l37 0 -35 13 c-59 22
-182 87 -243 128 -252 171 -426 430 -488 725 -28 133 -28 331 -1 463 149 709
905 1106 1570 826 318 -134 569 -421 657 -749 76 -282 48 -562 -81 -820 -81
-163 -196 -300 -344 -409 -77 -58 -228 -140 -290 -159 -174 -52 -266 -68 -400
-70 -74 -1 -96 -3 -75 -9 52 -14 250 -84 255 -89 3 -4 12 -7 20 -9 35 -7 200
-81 273 -122 9 -6 25 -14 35 -20 66 -37 204 -124 224 -143 14 -12 47 -38 74
-57 65 -46 54 -36 174 -143 61 -53 74 -55 192 -33 328 63 554 288 623 622 30
145 36 274 42 929 6 700 -6 1177 -32 1328 -32 181 -85 305 -179 419 -123 149
-283 231 -531 273 -168 29 -1180 43 -1810 25z m2045 -396 c129 -70 176 -219
110 -351 -34 -68 -77 -106 -151 -134 -100 -38 -194 -15 -276 66 -52 53 -83
121 -83 185 0 97 80 213 173 250 72 28 156 22 227 -16z"/>
<path d="M2935 3773 c-137 -30 -193 -52 -285 -110 -113 -71 -224 -201 -279
-328 -79 -178 -79 -411 0 -590 121 -278 416 -459 719 -442 120 7 192 26 300
79 69 34 103 60 181 138 84 83 102 108 142 190 55 115 77 209 77 330 0 411
-333 744 -739 739 -53 -1 -105 -3 -116 -6z"/>
<path d="M2898 1893 c6 -2 18 -2 25 0 6 3 1 5 -13 5 -14 0 -19 -2 -12 -5z"/>
</g>
</svg>
